<svg width="128" height="128" viewBox="0 0 128 128" fill="none" xmlns="http://www.w3.org/2000/svg">
<mask id="mask0_1_3203" style="mask-type:luminance" maskUnits="userSpaceOnUse" x="41" y="70" width="46" height="52">
<path d="M41 70H87V122H41V70Z" fill="white"/>
</mask>
<g mask="url(#mask0_1_3203)">
<mask id="mask1_1_3203" style="mask-type:luminance" maskUnits="userSpaceOnUse" x="40" y="54" width="48" height="69">
<path d="M40.4023 54.3398H87.8242V122.824H40.4023V54.3398ZM76.3125 97.0742C76.3125 90.332 70.8594 84.8633 64.1289 84.8633C57.4023 84.8633 51.9453 90.332 51.9453 97.0742C51.9453 103.816 57.4023 109.285 64.1289 109.285C70.8594 109.285 76.3125 103.816 76.3125 97.0742Z" fill="white"/>
</mask>
<g mask="url(#mask1_1_3203)">
<path d="M44.6641 70.7266H83.5625C85.4648 70.7266 87 72.25 87 74.1406V118.586C87 120.477 85.4648 122 83.5625 122H44.6641C42.7617 122 41.2266 120.477 41.2266 118.586V74.1406C41.2266 72.25 42.7617 70.7266 44.6641 70.7266Z" fill="url(#paint0_linear_1_3203)"/>
</g>
</g>
<mask id="mask2_1_3203" style="mask-type:luminance" maskUnits="userSpaceOnUse" x="41" y="68" width="46" height="52">
<path d="M41 68H87V120H41V68Z" fill="white"/>
</mask>
<g mask="url(#mask2_1_3203)">
<mask id="mask3_1_3203" style="mask-type:luminance" maskUnits="userSpaceOnUse" x="40" y="54" width="48" height="69">
<path d="M40.4023 54.3398H87.8242V122.824H40.4023V54.3398ZM76.3125 97.0742C76.3125 90.332 70.8594 84.8633 64.1289 84.8633C57.4023 84.8633 51.9453 90.332 51.9453 97.0742C51.9453 103.816 57.4023 109.285 64.1289 109.285C70.8594 109.285 76.3125 103.816 76.3125 97.0742Z" fill="white"/>
</mask>
<g mask="url(#mask3_1_3203)">
<path d="M44.6641 68.7266H83.5625C85.4648 68.7266 87 70.25 87 72.1406V116.586C87 118.477 85.4648 120 83.5625 120H44.6641C42.7617 120 41.2266 118.477 41.2266 116.586V72.1406C41.2266 70.25 42.7617 68.7266 44.6641 68.7266Z" fill="#77767B"/>
</g>
</g>
<mask id="mask4_1_3203" style="mask-type:luminance" maskUnits="userSpaceOnUse" x="41" y="55" width="46" height="54">
<path d="M41 55H87V109H41V55Z" fill="white"/>
</mask>
<g mask="url(#mask4_1_3203)">
<mask id="mask5_1_3203" style="mask-type:luminance" maskUnits="userSpaceOnUse" x="40" y="54" width="48" height="69">
<path d="M40.4023 54.3398H87.8242V122.824H40.4023V54.3398ZM76.3125 97.0742C76.3125 90.332 70.8594 84.8633 64.1289 84.8633C57.4023 84.8633 51.9453 90.332 51.9453 97.0742C51.9453 103.816 57.4023 109.285 64.1289 109.285C70.8594 109.285 76.3125 103.816 76.3125 97.0742Z" fill="white"/>
</mask>
<g mask="url(#mask5_1_3203)">
<path d="M41.2266 55.1641H87V108.578H41.2266V55.1641Z" fill="#434348" fill-opacity="0.509804"/>
</g>
</g>
<path d="M120 21.6133V94.3867C120 99.6953 115.703 104 110.406 104H17.5938C12.2969 104 8 99.6953 8 94.3867V21.6133C8 16.3047 12.2969 12 17.5938 12H110.406C115.703 12 120 16.3047 120 21.6133Z" fill="url(#paint1_linear_1_3203)"/>
<g filter="url(#filter0_i_1_3203)">
<path d="M120 21.6133V90.3867C120 95.6953 115.703 100 110.406 100H17.5938C12.2969 100 8 95.6953 8 90.3867V21.6133C8 16.3047 12.2969 12 17.5938 12H110.406C115.703 12 120 16.3047 120 21.6133Z" fill="#241F31"/>
</g>
<path d="M20.9006 18H108.099C111.91 18 115 20.997 115 24.6903V87.3097C115 91.003 111.91 94 108.099 94H20.9006C17.0905 94 14 91.003 14 87.3097V24.6903C14 20.997 17.0905 18 20.9006 18Z" fill="url(#paint2_linear_1_3203)"/>
<rect x="14" y="18" width="101" height="76" rx="8" fill="url(#paint3_linear_1_3203)" fill-opacity="0.43"/>
<defs>
<filter id="filter0_i_1_3203" x="8" y="12" width="114" height="90" filterUnits="userSpaceOnUse" color-interpolation-filters="sRGB">
<feFlood flood-opacity="0" result="BackgroundImageFix"/>
<feBlend mode="normal" in="SourceGraphic" in2="BackgroundImageFix" result="shape"/>
<feColorMatrix in="SourceAlpha" type="matrix" values="0 0 0 0 0 0 0 0 0 0 0 0 0 0 0 0 0 0 127 0" result="hardAlpha"/>
<feOffset dx="2" dy="2"/>
<feGaussianBlur stdDeviation="2"/>
<feComposite in2="hardAlpha" operator="arithmetic" k2="-1" k3="1"/>
<feColorMatrix type="matrix" values="0 0 0 0 1 0 0 0 0 1 0 0 0 0 1 0 0 0 0.31 0"/>
<feBlend mode="normal" in2="shape" result="effect1_innerShadow_1_3203"/>
</filter>
<linearGradient id="paint0_linear_1_3203" x1="41.3391" y1="121.146" x2="86.6961" y2="121.146" gradientUnits="userSpaceOnUse">
<stop stop-color="#9A9996"/>
<stop offset="0.0414257" stop-color="#C0BFBC"/>
<stop offset="0.0815191" stop-color="#9A9996"/>
<stop offset="0.899024" stop-color="#77767B"/>
<stop offset="0.952865" stop-color="#C0BFBC"/>
<stop offset="1" stop-color="#77767B"/>
</linearGradient>
<linearGradient id="paint1_linear_1_3203" x1="7.85835" y1="100.25" x2="119.911" y2="100.25" gradientUnits="userSpaceOnUse">
<stop stop-color="#3D3846"/>
<stop offset="0.0279595" stop-color="#79718E"/>
<stop offset="0.0654033" stop-color="#4E475A"/>
<stop offset="0.938181" stop-color="#716881"/>
<stop offset="0.971878" stop-color="#847A96"/>
<stop offset="1" stop-color="#3D3846"/>
</linearGradient>
<linearGradient id="paint2_linear_1_3203" x1="22.3357" y1="89.6101" x2="89.7776" y2="20.2098" gradientUnits="userSpaceOnUse">
<stop stop-color="#1C71D8"/>
<stop offset="1" stop-color="#62A0EA"/>
</linearGradient>
<linearGradient id="paint3_linear_1_3203" x1="15.7022" y1="20.0357" x2="62.0686" y2="116.623" gradientUnits="userSpaceOnUse">
<stop stop-color="white" stop-opacity="0.545"/>
<stop offset="0.153846" stop-color="white"/>
<stop offset="0.302885" stop-color="white" stop-opacity="0.3175"/>
<stop offset="0.586538" stop-color="white" stop-opacity="0.09"/>
<stop offset="0.745192" stop-color="white"/>
<stop offset="0.860577" stop-color="white" stop-opacity="0"/>
</linearGradient>
</defs>
</svg>
