<svg width="128" height="128" viewBox="0 0 128 128" fill="none" xmlns="http://www.w3.org/2000/svg">
<g clip-path="url(#clip0_1_3822)">
<mask id="mask0_1_3822" style="mask-type:luminance" maskUnits="userSpaceOnUse" x="40" y="61" width="48" height="55">
<path d="M40 61H88V116H40V61Z" fill="white"/>
</mask>
<g mask="url(#mask0_1_3822)">
<mask id="mask1_1_3822" style="mask-type:luminance" maskUnits="userSpaceOnUse" x="39" y="46" width="50" height="71">
<path d="M39.1406 46.5547H88.8594V116.879H39.1406V46.5547ZM76.7109 91.6016C76.7109 84.4258 71.0195 78.6055 64 78.6055C56.9805 78.6055 51.293 84.4258 51.293 91.6016C51.293 98.7773 56.9805 104.598 64 104.598C71.0195 104.598 76.7109 98.7773 76.7109 91.6016Z" fill="white"/>
</mask>
<g mask="url(#mask1_1_3822)">
<path d="M44.3906 61.4297H83.6094C86.043 61.4297 88 63.3594 88 65.7578V111.676C88 114.07 86.043 116 83.6094 116H44.3906C41.957 116 40 114.07 40 111.676V65.7578C40 63.3594 41.957 61.4297 44.3906 61.4297Z" fill="#9A9996"/>
</g>
</g>
<mask id="mask2_1_3822" style="mask-type:luminance" maskUnits="userSpaceOnUse" x="40" y="47" width="48" height="55">
<path d="M40 47H88V102H40V47Z" fill="white"/>
</mask>
<g mask="url(#mask2_1_3822)">
<mask id="mask3_1_3822" style="mask-type:luminance" maskUnits="userSpaceOnUse" x="39" y="46" width="50" height="71">
<path d="M39.1406 46.5547H88.8594V116.879H39.1406V46.5547ZM76.7109 91.6016C76.7109 84.4258 71.0195 78.6055 64 78.6055C56.9805 78.6055 51.293 84.4258 51.293 91.6016C51.293 98.7773 56.9805 104.598 64 104.598C71.0195 104.598 76.7109 98.7773 76.7109 91.6016Z" fill="white"/>
</mask>
<g mask="url(#mask3_1_3822)">
<path d="M40 47.4297H88V102H40V47.4297Z" fill="#818084"/>
</g>
</g>
<path d="M21.457 25.8594H106.547C111.766 25.8594 116 30.0938 116 35.3125V88.5469C116 93.7656 111.766 98 106.547 98H21.457C16.2344 98 12 93.7656 12 88.5469V35.3125C12 30.0938 16.2344 25.8594 21.457 25.8594Z" fill="url(#paint0_linear_1_3822)"/>
<path d="M21.457 12H106.547C111.766 12 116 16.3203 116 21.6484V84.3516C116 89.6797 111.766 94 106.547 94H21.457C16.2344 94 12 89.6797 12 84.3516V21.6484C12 16.3203 16.2344 12 21.457 12Z" fill="#F6F5F4" fill-opacity="0.819608"/>
<path d="M21.457 12H106.547C111.766 12 116 16.2148 116 21.4102V82.5898C116 87.7852 111.766 92 106.547 92H21.457C16.2344 92 12 87.7852 12 82.5898V21.4102C12 16.2148 16.2344 12 21.457 12Z" fill="#DEDDDA"/>
<rect x="16" y="16" width="96" height="74" rx="8" fill="url(#paint1_radial_1_3822)"/>
<mask id="mask4_1_3822" style="mask-type:luminance" maskUnits="userSpaceOnUse" x="0" y="0" width="128" height="128">
<path d="M128 0H0V128H128V0Z" fill="black" fill-opacity="0.5"/>
</mask>
<g mask="url(#mask4_1_3822)">
<mask id="mask5_1_3822" style="mask-type:luminance" maskUnits="userSpaceOnUse" x="-8" y="-16" width="192" height="152">
<path d="M184 -16H-8V136H184V-16Z" fill="white"/>
</mask>
<g mask="url(#mask5_1_3822)">
<path d="M23.3789 32.1367V23.1602H32.4063" stroke="white" stroke-width="2.32402" stroke-linecap="round"/>
<path d="M104.637 32.1367V23.1602H95.6094" stroke="white" stroke-width="2.32402" stroke-linecap="round"/>
<path d="M104.637 69.8633V78.8399H95.6094" stroke="white" stroke-width="2.32402" stroke-linecap="round"/>
<path d="M23.3789 69.8633V78.8399H32.4063" stroke="white" stroke-width="2.32402" stroke-linecap="round"/>
</g>
</g>
</g>
<defs>
<linearGradient id="paint0_linear_1_3822" x1="12.0009" y1="97.9998" x2="116" y2="97.9998" gradientUnits="userSpaceOnUse">
<stop stop-color="#77767B"/>
<stop offset="0.0357143" stop-color="#C0BFBC"/>
<stop offset="0.0713653" stop-color="#9A9996"/>
<stop offset="0.928571" stop-color="#9A9996"/>
<stop offset="0.964286" stop-color="#C0BFBC"/>
<stop offset="1" stop-color="#77767B"/>
</linearGradient>
<radialGradient id="paint1_radial_1_3822" cx="0" cy="0" r="1" gradientUnits="userSpaceOnUse" gradientTransform="translate(45.5385 41.9) rotate(33.8468) scale(72.243 93.9903)">
<stop stop-color="#00D4FF"/>
<stop offset="1" stop-color="#B44CBB"/>
</radialGradient>
<clipPath id="clip0_1_3822">
<rect width="128" height="128" fill="white"/>
</clipPath>
</defs>
</svg>
