<svg width="128" height="128" viewBox="0 0 128 128" fill="none" xmlns="http://www.w3.org/2000/svg">
<path d="M16 27.93H112C116.434 27.93 120 31.5 120 35.93V86L90 116H16C14.9487 116.003 13.9072 115.798 12.9354 115.396C11.9636 114.995 11.0807 114.406 10.3373 113.663C9.59389 112.919 9.00472 112.036 8.60362 111.065C8.20251 110.093 7.99739 109.051 8.00003 108V35.93C8.00003 31.5 11.566 27.93 16 27.93Z" fill="url(#paint0_linear_1_2202)"/>
<path d="M120 86.125H98C96.9487 86.1224 95.9072 86.3275 94.9354 86.7286C93.9636 87.1297 93.0807 87.7189 92.3373 88.4623C91.5939 89.2057 91.0047 90.0886 90.6036 91.0604C90.2025 92.0322 89.9974 93.0737 90 94.125V116L120 86.125Z" fill="#DEDDDA"/>
<path d="M34.9449 108.71V100.285L39.2069 96.027H42.7539L46.3039 92.477V83.87M42.0429 107.383V101.707L49.1449 94.605V86.703" stroke="#F9F06B" stroke-width="1.42"/>
<path d="M34.945 103.04C33.765 103.04 32.816 103.988 32.816 105.164V115.086C32.816 115.359 32.871 115.613 32.961 115.852H36.934C37.024 115.613 37.074 115.359 37.074 115.086V105.164C37.074 103.988 36.125 103.04 34.945 103.04ZM42.043 103.04C40.863 103.04 39.914 103.988 39.914 105.164V115.086C39.914 115.359 39.969 115.613 40.059 115.852H44.031C44.121 115.613 44.176 115.359 44.176 115.086V105.164C44.1759 104.884 44.1206 104.607 44.0133 104.349C43.9059 104.091 43.7487 103.856 43.5505 103.659C43.3524 103.461 43.1172 103.305 42.8585 103.199C42.5999 103.092 42.3227 103.039 42.043 103.04ZM49.145 103.04C47.965 103.04 47.012 103.988 47.012 105.164V115.086C47.012 115.359 47.066 115.613 47.156 115.852H51.129C51.219 115.613 51.273 115.359 51.273 115.086V105.164C51.273 103.988 50.324 103.04 49.145 103.04ZM56.242 103.04C55.062 103.04 54.113 103.988 54.113 105.164V115.086C54.113 115.359 54.164 115.613 54.253 115.852H58.227C58.317 115.613 58.371 115.359 58.371 115.086V105.164C58.371 103.988 57.421 103.04 56.242 103.04ZM63.34 103.04C62.16 103.04 61.21 103.988 61.21 105.164V115.086C61.21 115.359 61.262 115.613 61.352 115.852H65.324C65.4204 115.608 65.4697 115.348 65.469 115.086V105.164C65.469 103.988 64.519 103.039 63.339 103.039L63.34 103.04ZM70.437 103.04C69.257 103.04 68.309 103.988 68.309 105.164V115.086C68.309 115.359 68.359 115.613 68.453 115.852H72.422C72.5181 115.608 72.567 115.348 72.566 115.086V105.164C72.566 103.988 71.617 103.04 70.437 103.04ZM77.535 103.04C76.355 103.04 75.406 103.988 75.406 105.164V115.086C75.406 115.359 75.457 115.613 75.551 115.852H79.523C79.613 115.613 79.664 115.359 79.664 115.086V105.164C79.664 103.988 78.714 103.04 77.535 103.04ZM84.633 103.04C83.453 103.04 82.503 103.988 82.503 105.164V115.086C82.503 115.359 82.559 115.613 82.648 115.852H86.621C86.711 115.613 86.761 115.359 86.761 115.086V105.164C86.761 103.988 85.813 103.04 84.633 103.04Z" fill="url(#paint1_linear_1_2202)"/>
<path d="M63.34 105.254V101.707L57.66 96.027V86.801M56.242 105.254V100.285L54.82 98.867V86.801M49.145 105.254V98.867L51.98 96.027V86.801" stroke="#F9F06B" stroke-width="1.42"/>
<path d="M44.8831 70.473H61.9181C62.1979 70.4726 62.4752 70.5274 62.7339 70.6342C62.9926 70.741 63.2277 70.8977 63.4258 71.0955C63.6239 71.2932 63.7811 71.528 63.8883 71.7865C63.9956 72.045 64.0509 72.3221 64.0511 72.602V84.668C64.0515 84.9482 63.9965 85.2258 63.8895 85.4847C63.7824 85.7437 63.6253 85.979 63.4272 86.1771C63.229 86.3753 62.9938 86.5324 62.7348 86.6394C62.4758 86.7465 62.1983 86.8014 61.9181 86.801H44.8831C44.6031 86.801 44.3259 86.7458 44.0672 86.6386C43.8086 86.5314 43.5737 86.3742 43.3759 86.1761C43.178 85.978 43.0212 85.7428 42.9143 85.484C42.8075 85.2253 42.7527 84.948 42.7531 84.668V72.602C42.7531 71.426 43.7071 70.473 44.8831 70.473Z" fill="#3D3846"/>
<path d="M50.563 59.117H58.371L60.5 61.247V69.762" stroke="#F9F06B" stroke-width="1.42"/>
<path d="M57.6601 69.762V61.957L54.8201 59.117M54.8201 69.762V62.664L51.2731 59.117M51.9801 69.762V64.793L50.5631 63.375H42.7531M49.1451 69.762V64.086M46.3051 69.762V64.086" stroke="#F9F06B" stroke-width="1.42"/>
<path d="M46.305 66.21C46.2115 66.2097 46.1188 66.228 46.0324 66.2637C45.9459 66.2994 45.8674 66.3518 45.8013 66.418C45.7352 66.4842 45.6829 66.5628 45.6473 66.6493C45.6117 66.7358 45.5936 66.8285 45.594 66.922V69.762H47.012V66.922C47.0124 66.8288 46.9944 66.7365 46.9591 66.6504C46.9237 66.5642 46.8717 66.4858 46.806 66.4198C46.7404 66.3537 46.6623 66.3013 46.5763 66.2655C46.4903 66.2296 46.3981 66.2101 46.305 66.21ZM49.145 66.21C49.0515 66.2097 48.9588 66.228 48.8724 66.2637C48.7859 66.2994 48.7074 66.3518 48.6413 66.418C48.5752 66.4842 48.5229 66.5628 48.4873 66.6493C48.4517 66.7358 48.4336 66.8285 48.434 66.922V69.762H49.852V66.922C49.8524 66.8288 49.8344 66.7365 49.7991 66.6504C49.7637 66.5642 49.7117 66.4858 49.646 66.4198C49.5804 66.3537 49.5023 66.3013 49.4163 66.2655C49.3303 66.2296 49.2381 66.2101 49.145 66.21ZM51.98 66.21C51.8868 66.2101 51.7945 66.2287 51.7084 66.2646C51.6224 66.3004 51.5443 66.353 51.4786 66.4191C51.4129 66.4853 51.3609 66.5638 51.3256 66.6501C51.2904 66.7364 51.2725 66.8288 51.273 66.922V69.762H52.691V66.922C52.6913 66.8286 52.6731 66.7361 52.6375 66.6498C52.6019 66.5635 52.5497 66.4851 52.4837 66.419C52.4177 66.3529 52.3394 66.3006 52.2531 66.2649C52.1668 66.2292 52.0744 66.2109 51.981 66.211L51.98 66.21ZM54.82 66.21C54.7268 66.2101 54.6345 66.2287 54.5484 66.2646C54.4624 66.3004 54.3843 66.353 54.3186 66.4191C54.2529 66.4853 54.2009 66.5638 54.1656 66.6501C54.1304 66.7364 54.1125 66.8288 54.113 66.922V69.762H55.531V66.922C55.5313 66.8286 55.5131 66.7361 55.4775 66.6498C55.4419 66.5635 55.3897 66.4851 55.3237 66.419C55.2577 66.3529 55.1794 66.3006 55.0931 66.2649C55.0068 66.2292 54.9144 66.2109 54.821 66.211L54.82 66.21ZM57.66 66.21C57.5666 66.2099 57.474 66.2282 57.3877 66.264C57.3013 66.2997 57.2229 66.3522 57.157 66.4184C57.091 66.4845 57.0387 66.5631 57.0032 66.6495C56.9677 66.7359 56.9496 66.8285 56.95 66.922V69.762H58.371V66.922C58.3713 66.8286 58.3531 66.7361 58.3175 66.6498C58.2819 66.5635 58.2297 66.4851 58.1637 66.419C58.0977 66.3529 58.0194 66.3006 57.9331 66.2649C57.8468 66.2292 57.7544 66.2109 57.661 66.211L57.66 66.21ZM60.5 66.21C60.4066 66.2099 60.314 66.2282 60.2277 66.264C60.1413 66.2997 60.0629 66.3522 59.997 66.4184C59.931 66.4845 59.8787 66.5631 59.8432 66.6495C59.8077 66.7359 59.7896 66.8285 59.79 66.922V69.762H61.21V66.922C61.2103 66.8286 61.1921 66.7361 61.1565 66.6498C61.1209 66.5635 61.0687 66.4851 61.0027 66.419C60.9367 66.3529 60.8584 66.3006 60.7721 66.2649C60.6858 66.2292 60.5934 66.2099 60.5 66.21Z" fill="url(#paint2_linear_1_2202)"/>
<path d="M44.8831 68.344H61.9181C62.1979 68.3436 62.4752 68.3984 62.7339 68.5052C62.9926 68.612 63.2277 68.7687 63.4258 68.9664C63.6239 69.1642 63.7811 69.399 63.8883 69.6575C63.9956 69.916 64.0509 70.1931 64.0511 70.473V83.25C64.0509 83.5299 63.9956 83.807 63.8883 84.0655C63.7811 84.324 63.6239 84.5588 63.4258 84.7566C63.2277 84.9543 62.9926 85.111 62.7339 85.2178C62.4752 85.3246 62.1979 85.3794 61.9181 85.379H44.8831C44.6034 85.3791 44.3264 85.3242 44.068 85.2172C43.8096 85.1103 43.5748 84.9535 43.377 84.7558C43.1792 84.5581 43.0223 84.3233 42.9152 84.065C42.8082 83.8066 42.7531 83.5297 42.7531 83.25V70.473C42.7531 69.297 43.7071 68.344 44.8831 68.344Z" fill="#5E5C64"/>
<path d="M60.5 86.8V91.77L70.438 101.707V104.543" stroke="#F9F06B" stroke-width="1.42"/>
<path d="M45.594 72.602H56.242V74.023H45.594V72.602ZM45.594 75.441H51.274V78.281H45.594V75.441ZM51.98 75.441H59.79V78.281H51.98V75.441Z" fill="#77767B"/>
<path d="M74.695 87.508C74.695 87.8846 74.5454 88.2458 74.2791 88.5121C74.0128 88.7784 73.6516 88.928 73.275 88.928C72.8984 88.928 72.5372 88.7784 72.2709 88.5121C72.0046 88.2458 71.855 87.8846 71.855 87.508C71.855 86.727 72.492 86.09 73.277 86.09C74.062 86.09 74.695 86.727 74.695 87.508ZM73.625 69.758C73.625 70.543 72.988 71.18 72.207 71.18C71.8299 71.18 71.4682 71.0302 71.2015 70.7635C70.9348 70.4968 70.785 70.1351 70.785 69.758C70.785 69.3814 70.9346 69.0202 71.2009 68.7539C71.4672 68.4876 71.8284 68.338 72.205 68.338C72.5816 68.338 72.9428 68.4876 73.2091 68.7539C73.4754 69.0202 73.625 69.3814 73.625 69.758ZM82.145 69.758C82.145 70.1346 81.9954 70.4958 81.7291 70.7621C81.4628 71.0284 81.1016 71.178 80.725 71.178C80.3484 71.178 79.9872 71.0284 79.7209 70.7621C79.4546 70.4958 79.305 70.1346 79.305 69.758C79.305 68.977 79.938 68.34 80.723 68.34C81.508 68.34 82.145 68.977 82.145 69.758ZM82.145 64.082C82.145 64.863 81.508 65.5 80.723 65.5C79.938 65.5 79.305 64.863 79.305 64.082C79.305 63.7054 79.4546 63.3442 79.7209 63.0779C79.9872 62.8116 80.3484 62.662 80.725 62.662C81.1016 62.662 81.4628 62.8116 81.7291 63.0779C81.9954 63.3442 82.145 63.7054 82.145 64.082Z" stroke="#F9F06B" stroke-width="1.42"/>
<path d="M73.277 88.93V90.348L77.535 94.605V105.254M72.207 71.18V72.598L73.625 74.02H79.305L80.723 72.598V71.18M50.563 59.117C50.5627 59.3035 50.5256 59.4882 50.4539 59.6604C50.3822 59.8326 50.2773 59.989 50.1452 60.1207C50.0131 60.2524 49.8563 60.3567 49.6838 60.4278C49.5113 60.4989 49.3266 60.5353 49.14 60.535C48.9535 60.5347 48.7688 60.4976 48.5966 60.4259C48.4244 60.3542 48.268 60.2493 48.1363 60.1172C48.0046 59.985 47.9003 59.8283 47.8292 59.6558C47.7581 59.4833 47.7217 59.2985 47.722 59.112C47.7227 58.7354 47.8729 58.3745 48.1397 58.1086C48.4065 57.8428 48.7679 57.6938 49.1445 57.6945C49.5211 57.6952 49.882 57.8454 50.1479 58.1122C50.4137 58.3789 50.5637 58.7404 50.563 59.117ZM42.754 63.375C42.754 64.16 42.117 64.793 41.336 64.793C41.0553 64.7932 40.7808 64.7101 40.5473 64.5543C40.3138 64.3984 40.1317 64.1768 40.0242 63.9175C39.9167 63.6582 39.8885 63.3728 39.9432 63.0974C39.998 62.8221 40.1331 62.5691 40.3316 62.3706C40.5301 62.1721 40.7831 62.0369 41.0584 61.9822C41.3338 61.9275 41.6192 61.9557 41.8785 62.0632C42.1378 62.1707 42.3594 62.3528 42.5153 62.5863C42.6711 62.8198 42.7542 63.0943 42.754 63.375Z" stroke="#F9F06B" stroke-width="1.42"/>
<path d="M19.809 88.219H25.489V92.477H19.809V88.219Z" fill="url(#paint3_linear_1_2202)"/>
<path d="M19.809 85.379H25.489V86.8H19.809V85.379Z" fill="url(#paint4_linear_1_2202)"/>
<path d="M34.238 76.863H39.914V78.281H34.238V76.863Z" fill="url(#paint5_linear_1_2202)"/>
<path d="M34.238 71.184H39.914V75.441H34.238V71.184Z" fill="url(#paint6_linear_1_2202)"/>
<path d="M34.238 68.344H39.914V69.762H34.238V68.344Z" fill="url(#paint7_linear_1_2202)"/>
<path d="M80.723 52.719C80.914 52.7118 81.1044 52.7433 81.2829 52.8114C81.4615 52.8795 81.6244 52.983 81.7621 53.1155C81.8997 53.2481 82.0092 53.4071 82.084 53.5829C82.1588 53.7588 82.1973 53.9479 82.1973 54.139C82.1973 54.3301 82.1588 54.5192 82.084 54.6951C82.0092 54.8709 81.8997 55.0299 81.7621 55.1625C81.6244 55.295 81.4615 55.3985 81.2829 55.4666C81.1044 55.5348 80.914 55.5662 80.723 55.559C80.3469 55.559 79.9862 55.4096 79.7203 55.1437C79.4544 54.8778 79.305 54.5171 79.305 54.141C79.305 53.355 79.937 52.719 80.723 52.719ZM80.723 44.203C81.0996 44.203 81.4608 44.3526 81.7271 44.6189C81.9934 44.8852 82.143 45.2464 82.143 45.623C82.143 45.9996 81.9934 46.3608 81.7271 46.6271C81.4608 46.8934 81.0996 47.043 80.723 47.043C79.938 47.043 79.305 46.406 79.305 45.621C79.305 44.836 79.937 44.203 80.723 44.203ZM75.043 44.203C75.4196 44.203 75.7808 44.3526 76.0471 44.6189C76.3134 44.8852 76.463 45.2464 76.463 45.623C76.463 45.9996 76.3134 46.3608 76.0471 46.6271C75.7808 46.8934 75.4196 47.043 75.043 47.043C74.262 47.043 73.625 46.406 73.625 45.621C73.625 44.836 74.262 44.203 75.043 44.203Z" stroke="#F9F06B" stroke-width="1.41975"/>
<path d="M82.145 54.14H83.563L84.98 52.719V47.043L83.562 45.621H82.145" stroke="#F9F06B" stroke-width="1.42"/>
<path d="M67.238 55.563H74.336C74.7118 55.5635 75.072 55.713 75.3378 55.9786C75.6036 56.2442 75.7532 56.6043 75.754 56.98V61.95C75.754 62.734 75.117 63.371 74.336 63.371H67.238C66.8609 63.371 66.4992 63.2212 66.2325 62.9545C65.9659 62.6878 65.816 62.3261 65.816 61.949V56.98C65.816 56.2 66.453 55.563 67.238 55.563Z" fill="#3D3846"/>
<path d="M67.238 62.66V64.79C67.238 64.978 67.3127 65.1584 67.4457 65.2913C67.5787 65.4243 67.759 65.499 67.947 65.499C68.1351 65.499 68.3154 65.4243 68.4484 65.2913C68.5813 65.1584 68.656 64.978 68.656 64.79V62.66H67.238ZM70.074 62.66V64.79C70.074 65.184 70.391 65.5 70.785 65.5C71.18 65.5 71.496 65.184 71.496 64.79V62.66H70.074ZM72.914 62.66V64.79C72.914 65.184 73.23 65.5 73.625 65.5C74.02 65.5 74.335 65.184 74.335 64.79V62.66H72.914Z" fill="url(#paint8_linear_1_2202)"/>
<path d="M67.238 55.563V53.433C67.238 53.245 67.3127 53.0646 67.4457 52.9317C67.5787 52.7987 67.759 52.724 67.947 52.724C68.1351 52.724 68.3154 52.7987 68.4484 52.9317C68.5813 53.0646 68.656 53.245 68.656 53.433V55.563H67.238ZM70.074 55.563V53.433C70.074 53.039 70.391 52.723 70.785 52.723C71.18 52.723 71.496 53.039 71.496 53.433V55.563H70.074ZM72.914 55.563V53.433C72.914 53.039 73.23 52.723 73.625 52.723C74.02 52.723 74.335 53.039 74.335 53.433V55.563H72.914Z" fill="url(#paint9_linear_1_2202)"/>
<path d="M67.238 53.434H74.336C74.712 53.4345 75.0723 53.5841 75.3381 53.8499C75.6039 54.1157 75.7535 54.4761 75.754 54.852V60.532C75.754 61.316 75.117 61.949 74.336 61.949H67.238C67.0515 61.9494 66.8668 61.913 66.6943 61.8419C66.5219 61.7709 66.3651 61.6665 66.2331 61.5348C66.101 61.4031 65.9962 61.2467 65.9246 61.0744C65.8531 60.9022 65.8162 60.7175 65.816 60.531V54.851C65.816 54.071 66.453 53.434 67.238 53.434Z" fill="#5E5C64"/>
<path d="M67.238 54.852H72.914V56.273H67.238V54.852ZM67.238 57.691H70.074V59.113H67.238V57.691Z" fill="#77767B"/>
<path d="M87.113 76.148H91.371V80.406H87.113V76.148Z" fill="#986A44"/>
<path d="M87.113 76.148H91.371V78.988H87.113V76.148Z" fill="#B5835A"/>
<path d="M87.113 76.148H88.531V78.988H87.113V76.148Z" fill="#F6F5F4"/>
<path d="M87.113 80.406H88.531V78.988H87.113V80.406Z" fill="#C0BFBC"/>
<path d="M91.371 76.148H92.789V78.988H91.371V76.148Z" fill="#F6F5F4"/>
<path d="M91.371 80.406H92.789V78.988H91.371V80.406Z" fill="#C0BFBC"/>
<path d="M87.113 71.887H91.371V76.148H87.113V71.887Z" fill="#986A44"/>
<path d="M87.113 71.887H91.371V74.727H87.113V71.887Z" fill="#B5835A"/>
<path d="M87.113 71.887H88.531V74.727H87.113V71.887Z" fill="#F6F5F4"/>
<path d="M87.113 76.148H88.531V74.727H87.113V76.148Z" fill="#C0BFBC"/>
<path d="M91.371 71.887H92.789V74.727H91.371V71.887Z" fill="#F6F5F4"/>
<path d="M91.371 76.148H92.789V74.727H91.371V76.148Z" fill="#C0BFBC"/>
<path d="M87.113 67.629H91.371V71.887H87.113V67.629Z" fill="#986A44"/>
<path d="M87.113 67.629H91.371V70.469H87.113V67.629Z" fill="#B5835A"/>
<path d="M87.113 67.629H88.531V70.469H87.113V67.629Z" fill="#F6F5F4"/>
<path d="M87.113 71.887H88.531V70.469H87.113V71.887Z" fill="#C0BFBC"/>
<path d="M91.371 67.629H92.789V70.469H91.371V67.629Z" fill="#F6F5F4"/>
<path d="M91.371 71.887H92.789V70.469H91.371V71.887Z" fill="#C0BFBC"/>
<path d="M21.809 43.156V37.476H24.649V43.156H21.809Z" fill="#986A44"/>
<path d="M21.809 43.156V37.476H23.227V43.156H21.809Z" fill="#B5835A"/>
<path d="M21.809 43.156V41.738H24.649V43.156H21.809ZM21.809 38.898V37.477H24.649V38.898H21.809Z" fill="#F6F5F4"/>
<path d="M30.324 43.156V37.476H33.164V43.156H30.324Z" fill="#986A44"/>
<path d="M30.324 43.156V37.476H31.746V43.156H30.324Z" fill="#B5835A"/>
<path d="M30.324 43.156V41.738H33.164V43.156H30.324ZM30.324 38.898V37.477H33.164V38.898H30.324Z" fill="#F6F5F4"/>
<path d="M26.066 43.156V37.476H28.906V43.156H26.066Z" fill="#986A44"/>
<path d="M26.066 43.156V37.476H27.488V43.156H26.066Z" fill="#B5835A"/>
<path d="M26.066 43.156V41.738H28.906V43.156H26.066ZM26.066 38.898V37.477H28.906V38.898H26.066Z" fill="#F6F5F4"/>
<path d="M45.594 86.09V88.93C45.594 89.32 45.91 89.637 46.304 89.637C46.695 89.637 47.012 89.32 47.012 88.93V86.09H45.594ZM48.434 86.09V88.93C48.434 89.32 48.75 89.637 49.144 89.637C49.535 89.637 49.852 89.32 49.852 88.93V86.09H48.434ZM51.274 86.09V88.93C51.274 89.118 51.3487 89.2984 51.4817 89.4313C51.6146 89.5643 51.795 89.639 51.983 89.639C52.171 89.639 52.3514 89.5643 52.4843 89.4313C52.6173 89.2984 52.692 89.118 52.692 88.93V86.09H51.274ZM54.114 86.09V88.93C54.114 89.118 54.1887 89.2984 54.3217 89.4313C54.4546 89.5643 54.635 89.639 54.823 89.639C55.011 89.639 55.1914 89.5643 55.3243 89.4313C55.4573 89.2984 55.532 89.118 55.532 88.93V86.09H54.114ZM56.949 86.09V88.93C56.949 89.32 57.266 89.637 57.66 89.637C58.055 89.637 58.371 89.32 58.371 88.93V86.09H56.949ZM59.789 86.09V88.93C59.789 89.32 60.105 89.637 60.5 89.637C60.895 89.637 61.21 89.32 61.21 88.93V86.09H59.789Z" fill="url(#paint10_linear_1_2202)"/>
<path d="M105.363 76.148H109.621V80.406H105.363V76.148Z" fill="#986A44"/>
<path d="M105.363 76.148H109.621V78.988H105.363V76.148Z" fill="#B5835A"/>
<path d="M105.363 76.148H106.781V78.988H105.363V76.148Z" fill="#F6F5F4"/>
<path d="M105.363 80.406H106.781V78.988H105.363V80.406Z" fill="#C0BFBC"/>
<path d="M109.621 76.148H111.039V78.988H109.621V76.148Z" fill="#F6F5F4"/>
<path d="M109.621 80.406H111.039V78.988H109.621V80.406Z" fill="#C0BFBC"/>
<path d="M105.363 71.887H109.621V76.148H105.363V71.887Z" fill="#986A44"/>
<path d="M105.363 71.887H109.621V74.727H105.363V71.887Z" fill="#B5835A"/>
<path d="M105.363 71.887H106.781V74.727H105.363V71.887Z" fill="#F6F5F4"/>
<path d="M105.363 76.148H106.781V74.727H105.363V76.148Z" fill="#C0BFBC"/>
<path d="M109.621 71.887H111.039V74.727H109.621V71.887Z" fill="#F6F5F4"/>
<path d="M109.621 76.148H111.039V74.727H109.621V76.148Z" fill="#C0BFBC"/>
<path d="M105.363 67.629H109.621V71.887H105.363V67.629Z" fill="#986A44"/>
<path d="M105.363 67.629H109.621V70.469H105.363V67.629Z" fill="#B5835A"/>
<path d="M105.363 67.629H106.781V70.469H105.363V67.629Z" fill="#F6F5F4"/>
<path d="M105.363 71.887H106.781V70.469H105.363V71.887Z" fill="#C0BFBC"/>
<path d="M109.621 67.629H111.039V70.469H109.621V67.629Z" fill="#F6F5F4"/>
<path d="M109.621 71.887H111.039V70.469H109.621V71.887Z" fill="#C0BFBC"/>
<path d="M95.863 76.148H100.121V80.406H95.863V76.148Z" fill="#986A44"/>
<path d="M95.863 76.148H100.121V78.988H95.863V76.148Z" fill="#B5835A"/>
<path d="M95.863 76.148H97.281V78.988H95.863V76.148Z" fill="#F6F5F4"/>
<path d="M95.863 80.406H97.281V78.988H95.863V80.406Z" fill="#C0BFBC"/>
<path d="M100.121 76.148H101.539V78.988H100.121V76.148Z" fill="#F6F5F4"/>
<path d="M100.121 80.406H101.539V78.988H100.121V80.406Z" fill="#C0BFBC"/>
<path d="M95.863 71.887H100.121V76.148H95.863V71.887Z" fill="#986A44"/>
<path d="M95.863 71.887H100.121V74.727H95.863V71.887Z" fill="#B5835A"/>
<path d="M95.863 71.887H97.281V74.727H95.863V71.887Z" fill="#F6F5F4"/>
<path d="M95.863 76.148H97.281V74.727H95.863V76.148Z" fill="#C0BFBC"/>
<path d="M100.121 71.887H101.539V74.727H100.121V71.887Z" fill="#F6F5F4"/>
<path d="M100.121 76.148H101.539V74.727H100.121V76.148Z" fill="#C0BFBC"/>
<path d="M95.863 67.629H100.121V71.887H95.863V67.629Z" fill="#986A44"/>
<path d="M95.863 67.629H100.121V70.469H95.863V67.629Z" fill="#B5835A"/>
<path d="M95.863 67.629H97.281V70.469H95.863V67.629Z" fill="#F6F5F4"/>
<path d="M95.863 71.887H97.281V70.469H95.863V71.887Z" fill="#C0BFBC"/>
<path d="M100.121 67.629H101.539V70.469H100.121V67.629Z" fill="#F6F5F4"/>
<path d="M100.121 71.887H101.539V70.469H100.121V71.887Z" fill="#C0BFBC"/>
<path d="M19.809 77.969H25.489V82.227H19.809V77.969Z" fill="url(#paint11_linear_1_2202)"/>
<path d="M19.809 75.129H25.489V76.551H19.809V75.129Z" fill="url(#paint12_linear_1_2202)"/>
<path d="M19.809 58.719H25.489V62.977H19.809V58.719Z" fill="url(#paint13_linear_1_2202)"/>
<path d="M19.809 55.879H25.489V57.3H19.809V55.879Z" fill="url(#paint14_linear_1_2202)"/>
<path d="M20.7459 103.04C19.5659 103.04 18.6169 103.988 18.6169 105.164V115.086C18.6169 115.359 18.6679 115.613 18.7619 115.852H22.7299C22.8264 115.608 22.8756 115.348 22.8749 115.086V105.164C22.8749 103.988 21.9249 103.04 20.7459 103.04ZM27.8439 103.04C26.6639 103.04 25.7139 103.988 25.7139 105.164V115.086C25.7139 115.359 25.7659 115.613 25.8589 115.852H29.8319C29.9219 115.613 29.9719 115.359 29.9719 115.086V105.164C29.9719 103.988 29.0229 103.04 27.8439 103.04Z" fill="url(#paint15_linear_1_2202)"/>
<defs>
<linearGradient id="paint0_linear_1_2202" x1="10.5" y1="28" x2="102.5" y2="100.5" gradientUnits="userSpaceOnUse">
<stop offset="0.115385" stop-color="#2EC27E"/>
<stop offset="0.264423" stop-color="#13E183"/>
<stop offset="0.442308" stop-color="#2EC27E"/>
<stop offset="0.502547" stop-color="#2EC27E"/>
<stop offset="0.638712" stop-color="#00E17A" stop-opacity="0.882353"/>
<stop offset="0.884615" stop-color="#00B160"/>
<stop offset="1" stop-color="#165C3C"/>
</linearGradient>
<linearGradient id="paint1_linear_1_2202" x1="37.076" y1="105.166" x2="37.076" y2="112.253" gradientUnits="userSpaceOnUse">
<stop stop-color="#F9F06B"/>
<stop offset="0.512" stop-color="#FCF7AC"/>
<stop offset="1" stop-color="#F9F06B"/>
</linearGradient>
<linearGradient id="paint2_linear_1_2202" x1="60.5" y1="66.569" x2="60.5" y2="70.118" gradientUnits="userSpaceOnUse">
<stop stop-color="#D5D1CC"/>
<stop offset="0.183" stop-color="#F6F5F4"/>
<stop offset="0.395" stop-color="white"/>
<stop offset="0.784" stop-color="#D7D3CE"/>
<stop offset="1" stop-color="#C8C2BB"/>
</linearGradient>
<linearGradient id="paint3_linear_1_2202" x1="23.357" y1="87.509" x2="24.498" y2="91.768" gradientUnits="userSpaceOnUse">
<stop stop-color="#F9F06B"/>
<stop offset="0.512" stop-color="#FCF7AC"/>
<stop offset="1" stop-color="#F9F06B"/>
</linearGradient>
<linearGradient id="paint4_linear_1_2202" x1="23.3569" y1="85.1408" x2="23.4917" y2="86.6503" gradientUnits="userSpaceOnUse">
<stop stop-color="#F9F06B"/>
<stop offset="0.512" stop-color="#FCF7AC"/>
<stop offset="1" stop-color="#F9F06B"/>
</linearGradient>
<linearGradient id="paint5_linear_1_2202" x1="37.786" y1="76.6228" x2="37.9208" y2="78.1323" gradientUnits="userSpaceOnUse">
<stop stop-color="#F9F06B"/>
<stop offset="0.512" stop-color="#FCF7AC"/>
<stop offset="1" stop-color="#F9F06B"/>
</linearGradient>
<linearGradient id="paint6_linear_1_2202" x1="37.786" y1="70.473" x2="38.927" y2="74.732" gradientUnits="userSpaceOnUse">
<stop stop-color="#F9F06B"/>
<stop offset="0.512" stop-color="#FCF7AC"/>
<stop offset="1" stop-color="#F9F06B"/>
</linearGradient>
<linearGradient id="paint7_linear_1_2202" x1="37.786" y1="68.1058" x2="37.9208" y2="69.6153" gradientUnits="userSpaceOnUse">
<stop stop-color="#F9F06B"/>
<stop offset="0.512" stop-color="#FCF7AC"/>
<stop offset="1" stop-color="#F9F06B"/>
</linearGradient>
<linearGradient id="paint8_linear_1_2202" x1="67.946" y1="61.951" x2="67.946" y2="65.5" gradientUnits="userSpaceOnUse">
<stop stop-color="#D5D1CC"/>
<stop offset="0.183" stop-color="#F6F5F4"/>
<stop offset="0.395" stop-color="white"/>
<stop offset="0.784" stop-color="#D7D3CE"/>
<stop offset="1" stop-color="#C8C2BB"/>
</linearGradient>
<linearGradient id="paint9_linear_1_2202" x1="67.9464" y1="56.2728" x2="67.9464" y2="52.7237" gradientUnits="userSpaceOnUse">
<stop stop-color="#D5D1CC"/>
<stop offset="0.183" stop-color="#F6F5F4"/>
<stop offset="0.395" stop-color="white"/>
<stop offset="0.784" stop-color="#D7D3CE"/>
<stop offset="1" stop-color="#C8C2BB"/>
</linearGradient>
<linearGradient id="paint10_linear_1_2202" x1="46.304" y1="86.089" x2="46.304" y2="89.638" gradientUnits="userSpaceOnUse">
<stop stop-color="#D5D1CC"/>
<stop offset="0.183" stop-color="#F6F5F4"/>
<stop offset="0.395" stop-color="white"/>
<stop offset="0.784" stop-color="#D7D3CE"/>
<stop offset="1" stop-color="#C8C2BB"/>
</linearGradient>
<linearGradient id="paint11_linear_1_2202" x1="23.357" y1="77.259" x2="24.498" y2="81.518" gradientUnits="userSpaceOnUse">
<stop stop-color="#F9F06B"/>
<stop offset="0.512" stop-color="#FCF7AC"/>
<stop offset="1" stop-color="#F9F06B"/>
</linearGradient>
<linearGradient id="paint12_linear_1_2202" x1="23.3569" y1="74.8908" x2="23.4917" y2="76.4003" gradientUnits="userSpaceOnUse">
<stop stop-color="#F9F06B"/>
<stop offset="0.512" stop-color="#FCF7AC"/>
<stop offset="1" stop-color="#F9F06B"/>
</linearGradient>
<linearGradient id="paint13_linear_1_2202" x1="23.357" y1="58.009" x2="24.498" y2="62.268" gradientUnits="userSpaceOnUse">
<stop stop-color="#F9F06B"/>
<stop offset="0.512" stop-color="#FCF7AC"/>
<stop offset="1" stop-color="#F9F06B"/>
</linearGradient>
<linearGradient id="paint14_linear_1_2202" x1="23.3569" y1="55.6408" x2="23.4917" y2="57.1503" gradientUnits="userSpaceOnUse">
<stop stop-color="#F9F06B"/>
<stop offset="0.512" stop-color="#FCF7AC"/>
<stop offset="1" stop-color="#F9F06B"/>
</linearGradient>
<linearGradient id="paint15_linear_1_2202" x1="22.8749" y1="105.166" x2="22.8749" y2="112.253" gradientUnits="userSpaceOnUse">
<stop stop-color="#F9F06B"/>
<stop offset="0.512" stop-color="#FCF7AC"/>
<stop offset="1" stop-color="#F9F06B"/>
</linearGradient>
</defs>
</svg>
