<svg width="128" height="128" viewBox="0 0 128 128" fill="none" xmlns="http://www.w3.org/2000/svg">
<g filter="url(#filter0_i_1_2302)">
<mask id="mask0_1_2302" style="mask-type:luminance" maskUnits="userSpaceOnUse" x="4" y="3" width="120" height="121">
<path d="M4 3H124V124H4V3Z" fill="white"/>
</mask>
<g mask="url(#mask0_1_2302)">
<mask id="mask1_1_2302" style="mask-type:luminance" maskUnits="userSpaceOnUse" x="4" y="3" width="120" height="121">
<path d="M69.5391 6.28516L121.223 57.9688C124.281 61.0234 124.281 65.9805 121.223 69.0352L69.5391 120.719C66.4844 123.777 61.5312 123.777 58.4727 120.719L6.78906 69.0352C3.73438 65.9805 3.73438 61.0234 6.78906 57.9688L58.4727 6.28516C61.5312 3.22656 66.4844 3.22656 69.5391 6.28516Z" fill="white"/>
</mask>
<g mask="url(#mask1_1_2302)">
<path d="M65.5 2.24609L125.262 62.0078C126.09 62.832 126.09 64.1719 125.262 64.9961L65.5 124.758C64.6758 125.586 63.3359 125.586 62.5117 124.758L2.75 64.9961C1.92578 64.1719 1.92578 62.832 2.75 62.0078L62.5117 2.24609C63.3359 1.42187 64.6758 1.42187 65.5 2.24609Z" fill="url(#paint0_linear_1_2302)"/>
</g>
</g>
</g>
<mask id="mask2_1_2302" style="mask-type:luminance" maskUnits="userSpaceOnUse" x="49" y="32" width="75" height="92">
<path d="M49 32H124V124H49V32Z" fill="white"/>
</mask>
<g mask="url(#mask2_1_2302)">
<mask id="mask3_1_2302" style="mask-type:luminance" maskUnits="userSpaceOnUse" x="4" y="3" width="120" height="121">
<path d="M69.5391 6.28516L121.223 57.9688C124.281 61.0234 124.281 65.9805 121.223 69.0352L69.5391 120.719C66.4844 123.777 61.5312 123.777 58.4727 120.719L6.78906 69.0352C3.73438 65.9805 3.73438 61.0234 6.78906 57.9688L58.4727 6.28516C61.5312 3.22656 66.4844 3.22656 69.5391 6.28516Z" fill="white"/>
</mask>
<g mask="url(#mask3_1_2302)">
<path d="M101.398 32.6758L98.9805 39.9688C98.8633 39.9609 98.7461 39.957 98.6289 39.9492C96.6719 39.9648 94.7188 40.1172 92.7812 40.4023L89.4062 33.4336C86.9648 33.9023 84.5625 34.5547 82.2148 35.3828L82.7773 43.0625C80.8594 43.8477 79 44.7734 77.2188 45.8281L71.418 40.668C69.3477 42.043 67.3789 43.5703 65.5352 45.2344L68.9844 52.1016C67.5117 53.5625 66.1523 55.1328 64.9141 56.7969L57.5664 54.2422C56.1797 56.3086 54.9531 58.4727 53.8945 60.7188L59.6953 65.7344C58.9023 67.6523 58.25 69.625 57.7422 71.6367L49.9844 72.0898C49.4922 74.5234 49.1836 76.9961 49.0625 79.4766L56.3555 81.8945C56.3477 82.0117 56.3437 82.125 56.3359 82.2422C56.3516 84.2031 56.5039 86.1562 56.7891 88.0938L49.8203 91.4688C50.2891 93.9102 50.9414 96.3125 51.7695 98.6562L59.4492 98.0977C60.2344 100.016 61.1602 101.875 62.2188 103.656L57.0586 109.457C58.4297 111.527 59.957 113.496 61.625 115.34L68.4883 111.891C69.9531 113.359 71.5195 114.719 73.1836 115.957L70.6289 123.309C72.6953 124.691 74.8594 125.918 77.1055 126.98L82.1211 121.176C84.0391 121.973 86.0117 122.625 88.0234 123.129L88.4766 130.887C90.9141 131.379 93.3828 131.688 95.8633 131.812L98.2812 124.52C98.3984 124.523 98.5156 124.531 98.6289 124.535C100.59 124.52 102.543 124.371 104.48 124.082L107.855 131.051C110.297 130.582 112.699 129.93 115.043 129.102L114.484 121.426C116.402 120.641 118.262 119.715 120.043 118.656L125.844 123.816C127.914 122.445 129.883 120.918 131.727 119.25L128.277 112.387C129.746 110.922 131.105 109.352 132.348 107.688L139.695 110.242C141.078 108.18 142.309 106.016 143.367 103.766L137.566 98.7539C138.359 96.8359 139.012 94.8633 139.516 92.8477L147.277 92.3984C147.77 89.9609 148.078 87.4922 148.199 85.0078L140.906 82.5938C140.914 82.4766 140.918 82.3594 140.922 82.2422C140.91 80.2852 140.758 78.3281 140.473 76.3906L147.441 73.0195C146.969 70.5742 146.32 68.1719 145.492 65.8281L137.812 66.3867C137.027 64.4688 136.102 62.6133 135.043 60.8281L140.203 55.0312C138.832 52.957 137.305 50.9922 135.637 49.1484L128.773 52.5938C127.309 51.125 125.738 49.7656 124.078 48.5273L126.633 41.1797C124.566 39.793 122.402 38.5664 120.156 37.5078L115.141 43.3086C113.223 42.5156 111.25 41.8594 109.238 41.3555L108.785 33.5977C106.348 33.1055 103.879 32.7969 101.398 32.6758ZM98.6289 51.207C115.77 51.207 129.664 65.1016 129.664 82.2422C129.664 99.3828 115.77 113.277 98.6289 113.277C81.4922 113.277 67.5977 99.3828 67.5977 82.2422C67.5977 65.1016 81.4922 51.207 98.6289 51.207Z" fill="url(#paint1_linear_1_2302)"/>
</g>
</g>
<mask id="mask4_1_2302" style="mask-type:luminance" maskUnits="userSpaceOnUse" x="4" y="3" width="57" height="90">
<path d="M4 3H61V93H4V3Z" fill="white"/>
</mask>
<g mask="url(#mask4_1_2302)">
<mask id="mask5_1_2302" style="mask-type:luminance" maskUnits="userSpaceOnUse" x="4" y="3" width="120" height="121">
<path d="M69.5391 6.28516L121.223 57.9688C124.281 61.0234 124.281 65.9805 121.223 69.0352L69.5391 120.719C66.4844 123.777 61.5312 123.777 58.4727 120.719L6.78906 69.0352C3.73438 65.9805 3.73438 61.0234 6.78906 57.9688L58.4727 6.28516C61.5312 3.22656 66.4844 3.22656 69.5391 6.28516Z" fill="white"/>
</mask>
<g mask="url(#mask5_1_2302)">
<path d="M14.0664 -6.60156L11.6484 0.691405C11.5312 0.683593 11.4141 0.679688 11.3008 0.671875C9.33984 0.6875 7.38672 0.839844 5.44922 1.125L2.07422 -5.84375C-0.367188 -5.375 -2.76953 -4.72266 -5.11328 -3.89453L-4.55469 3.78516C-6.47266 4.57031 -8.33203 5.49609 -10.1133 6.55469L-15.9141 1.39453C-17.9844 2.76562 -19.9531 4.29297 -21.7969 5.96094L-18.3477 12.8242C-19.8164 14.2891 -21.1758 15.8555 -22.418 17.5195L-29.7656 14.9648C-31.1484 17.0312 -32.3789 19.1953 -33.4375 21.4414L-27.6367 26.457C-28.4297 28.375 -29.082 30.3477 -29.5898 32.3594L-37.3477 32.8125C-37.8398 35.25 -38.1484 37.7188 -38.2695 40.1992L-30.9766 42.6172C-30.9844 42.7344 -30.9883 42.8516 -30.9922 42.9648C-30.9805 44.9258 -30.8281 46.8789 -30.543 48.8164L-37.5117 52.1914C-37.043 54.6328 -36.3906 57.0352 -35.5625 59.3789L-27.8828 58.8203C-27.0977 60.7383 -26.1719 62.5977 -25.1133 64.3789L-30.2734 70.1797C-28.9023 72.25 -27.375 74.2188 -25.707 76.0625L-18.8438 72.6133C-17.3789 74.082 -15.8086 75.4414 -14.1484 76.6836L-16.7031 84.0312C-14.6367 85.4141 -12.4727 86.6445 -10.2266 87.7031L-5.21094 81.9023C-3.29297 82.6953 -1.32031 83.3477 0.691406 83.8516L1.14453 91.6133C3.58203 92.1055 6.05078 92.4141 8.53125 92.5352L10.9492 85.2422C11.0664 85.25 11.1836 85.2539 11.3008 85.2578C13.2578 85.2461 15.2109 85.0938 17.1484 84.8086L20.5234 91.7773C22.9648 91.3047 25.3672 90.6562 27.7148 89.8281L27.1523 82.1484C29.0703 81.3633 30.9297 80.4375 32.7109 79.3789L38.5117 84.5391C40.582 83.168 42.5508 81.6406 44.3945 79.9727L40.9453 73.1094C42.4141 71.6445 43.7773 70.0742 45.0156 68.4141L52.3633 70.9688C53.75 68.9023 54.9766 66.7383 56.0352 64.4922L50.2344 59.4766C51.0273 57.5586 51.6797 55.5859 52.1875 53.5742L59.9453 53.1211C60.4375 50.6836 60.7461 48.2148 60.8672 45.7344L53.5742 43.3164C53.582 43.1992 53.5859 43.082 53.5938 42.9648C53.5781 41.0078 53.4258 39.0547 53.1406 37.1172L60.1094 33.7422C59.6406 31.3008 58.9883 28.8984 58.1602 26.5508L50.4805 27.1133C49.6953 25.1953 48.7695 23.3359 47.7109 21.5547L52.8711 15.7539C51.5 13.6836 49.9727 11.7148 48.3047 9.87109L41.4414 13.3203C39.9766 11.8477 38.4062 10.4883 36.7461 9.25L39.3008 1.90234C37.2344 0.515625 35.0703 -0.710938 32.8242 -1.76953L27.8086 4.03125C25.8906 3.23828 23.918 2.58594 21.9062 2.07812L21.4531 -5.67969C19.0156 -6.17188 16.5469 -6.48047 14.0664 -6.60156Z" fill="url(#paint2_linear_1_2302)"/>
</g>
</g>
<defs>
<filter id="filter0_i_1_2302" x="4.49805" y="3.99121" width="119.019" height="123.821" filterUnits="userSpaceOnUse" color-interpolation-filters="sRGB">
<feFlood flood-opacity="0" result="BackgroundImageFix"/>
<feBlend mode="normal" in="SourceGraphic" in2="BackgroundImageFix" result="shape"/>
<feColorMatrix in="SourceAlpha" type="matrix" values="0 0 0 0 0 0 0 0 0 0 0 0 0 0 0 0 0 0 127 0" result="hardAlpha"/>
<feOffset dy="6"/>
<feGaussianBlur stdDeviation="2.4"/>
<feComposite in2="hardAlpha" operator="arithmetic" k2="-1" k3="1"/>
<feColorMatrix type="matrix" values="0 0 0 0 1 0 0 0 0 1 0 0 0 0 1 0 0 0 0.41 0"/>
<feBlend mode="normal" in2="shape" result="effect1_innerShadow_1_2302"/>
</filter>
<linearGradient id="paint0_linear_1_2302" x1="64.0073" y1="1.62793" x2="64.0073" y2="125.379" gradientUnits="userSpaceOnUse">
<stop stop-color="#00D875"/>
<stop offset="0.495092" stop-color="#2EC27E"/>
<stop offset="1" stop-color="#006637"/>
</linearGradient>
<linearGradient id="paint1_linear_1_2302" x1="98.6309" y1="32.6758" x2="98.6309" y2="131.812" gradientUnits="userSpaceOnUse">
<stop stop-color="#00FC71"/>
<stop offset="0.495192" stop-color="#33D17A"/>
<stop offset="1" stop-color="#003819"/>
</linearGradient>
<linearGradient id="paint2_linear_1_2302" x1="11.2988" y1="-6.60156" x2="11.2988" y2="92.5352" gradientUnits="userSpaceOnUse">
<stop stop-color="#004F2B"/>
<stop offset="1" stop-color="#009751"/>
</linearGradient>
</defs>
</svg>
