<svg width="128" height="128" viewBox="0 0 128 128" fill="none" xmlns="http://www.w3.org/2000/svg">
<path d="M16 20H112C116.434 20 120 23.5703 120 28V78.0703L90 108.07H16C11.5664 108.07 8 104.504 8 100.07V28C8 23.5703 11.5664 20 16 20Z" fill="#F6F5F4"/>
<path d="M120 78.1953H98C93.5664 78.1953 90 81.7656 90 86.1953V108.07L120 78.1953Z" fill="#DEDDDA"/>
<path d="M21 28.0703C18.2386 28.0703 16 30.3089 16 33.0703V95.0703C16 97.8317 18.2386 100.07 21 100.07H85C87.7614 100.07 90 97.8317 90 95.0703V86.1953C90 81.7617 93.5664 78.1953 98 78.1953H107C109.761 78.1953 112 75.9567 112 73.1953V33.0703C112 30.3089 109.761 28.0703 107 28.0703H21Z" fill="url(#paint0_linear_18_14)" fill-opacity="0.31"/>
<g filter="url(#filter0_d_18_14)">
<path d="M64 49.125C60.5054 49.125 57.625 52.0054 57.625 55.5V64.7305C56.6538 64.2656 55.5747 64 54.4375 64C50.3535 64 47 67.3618 47 71.4375C47 75.5215 50.3535 78.875 54.4375 78.875C58.5049 78.875 61.8501 75.5464 61.875 71.479C61.875 71.4624 61.875 71.4541 61.875 71.4375V55.5C61.875 54.3047 62.8047 53.375 64 53.375H72.5C73.6953 53.375 74.625 54.3047 74.625 55.5V64.7305C73.6538 64.2656 72.5747 64 71.4375 64C67.3535 64 64 67.3618 64 71.4375C64 75.5215 67.3535 78.875 71.4375 78.875C75.5215 78.875 78.875 75.5215 78.875 71.4375V55.5C78.875 52.0054 75.9946 49.125 72.5 49.125H64ZM54.4375 68.25C56.2222 68.25 57.625 69.6528 57.625 71.4375V71.4707C57.6084 73.2471 56.2139 74.625 54.4375 74.625C52.6528 74.625 51.25 73.2305 51.25 71.4375C51.25 69.6528 52.6528 68.25 54.4375 68.25ZM71.4375 68.25C73.2222 68.25 74.625 69.6528 74.625 71.4375C74.625 73.2305 73.2222 74.625 71.4375 74.625C69.6528 74.625 68.25 73.2305 68.25 71.4375C68.25 69.6528 69.6528 68.25 71.4375 68.25Z" fill="white"/>
</g>
<defs>
<filter id="filter0_d_18_14" x="44" y="46.125" width="39.875" height="37.75" filterUnits="userSpaceOnUse" color-interpolation-filters="sRGB">
<feFlood flood-opacity="0" result="BackgroundImageFix"/>
<feColorMatrix in="SourceAlpha" type="matrix" values="0 0 0 0 0 0 0 0 0 0 0 0 0 0 0 0 0 0 127 0" result="hardAlpha"/>
<feOffset dx="1" dy="1"/>
<feGaussianBlur stdDeviation="2"/>
<feComposite in2="hardAlpha" operator="out"/>
<feColorMatrix type="matrix" values="0 0 0 0 0 0 0 0 0 0 0 0 0 0 0 0 0 0 1 0"/>
<feBlend mode="overlay" in2="BackgroundImageFix" result="effect1_dropShadow_18_14"/>
<feBlend mode="normal" in="SourceGraphic" in2="effect1_dropShadow_18_14" result="shape"/>
</filter>
<linearGradient id="paint0_linear_18_14" x1="16.2808" y1="28.9756" x2="93.4909" y2="88.6083" gradientUnits="userSpaceOnUse">
<stop stop-color="#1A5FB4"/>
<stop offset="0.245192" stop-color="#813D9C"/>
<stop offset="0.548077" stop-color="#ED333B"/>
<stop offset="0.788462" stop-color="#FF7800"/>
<stop offset="1" stop-color="#F6D32D"/>
</linearGradient>
</defs>
</svg>
