<svg width="128" height="128" viewBox="0 0 128 128" fill="none" xmlns="http://www.w3.org/2000/svg">
<g clip-path="url(#clip0_1_2363)">
<path d="M16 20H112C116.434 20 120 23.5703 120 28V78.0703L90 108.07H16C11.5664 108.07 8 104.504 8 100.07V28C8 23.5703 11.5664 20 16 20Z" fill="#F6F5F4"/>
<path d="M48.7109 90.0352H83.2891C89.2031 90.0352 94 85.2422 94 79.3242V44.7461C94 38.832 89.2031 34.0352 83.2891 34.0352H48.7109C42.7969 34.0352 38 38.832 38 44.7461V79.3242C38 85.2422 42.7969 90.0352 48.7109 90.0352Z" stroke="#3584E4" stroke-width="4" stroke-linecap="round"/>
<g filter="url(#filter0_d_1_2363)">
<path d="M120 78.1953H98C93.5664 78.1953 90 81.7656 90 86.1953V108.07L120 78.1953Z" fill="#DEDDDA"/>
</g>
<path d="M83 38.0703V89.0703" stroke="#99C1F1" stroke-width="2" stroke-dasharray="2 2"/>
<path d="M49 38.0703V89.0703" stroke="#99C1F1" stroke-width="2" stroke-dasharray="2 2"/>
<path d="M48.4531 58.0703H83.5469C89.3203 58.0703 94 53.3906 94 47.6172V44.4922C94 38.7148 89.3203 34.0352 83.5469 34.0352H48.4531C42.6797 34.0352 38 38.7148 38 44.4922V47.6172C38 53.3906 42.6797 58.0703 48.4531 58.0703Z" stroke="#3584E4" stroke-width="4" stroke-dasharray="4 4"/>
<path d="M91.9414 69.7578C90.4375 68.0664 88.2461 67 85.7969 67H46.2031C43.6914 67 41.4531 68.1172 39.9492 69.8867" stroke="#99C1F1" stroke-width="2" stroke-dasharray="2 2"/>
</g>
<defs>
<filter id="filter0_d_1_2363" x="74.4" y="62.5953" width="57.2" height="57.075" filterUnits="userSpaceOnUse" color-interpolation-filters="sRGB">
<feFlood flood-opacity="0" result="BackgroundImageFix"/>
<feColorMatrix in="SourceAlpha" type="matrix" values="0 0 0 0 0 0 0 0 0 0 0 0 0 0 0 0 0 0 127 0" result="hardAlpha"/>
<feOffset dx="-2" dy="-2"/>
<feGaussianBlur stdDeviation="6.8"/>
<feComposite in2="hardAlpha" operator="out"/>
<feColorMatrix type="matrix" values="0 0 0 0 0 0 0 0 0 0 0 0 0 0 0 0 0 0 0.21 0"/>
<feBlend mode="normal" in2="BackgroundImageFix" result="effect1_dropShadow_1_2363"/>
<feBlend mode="normal" in="SourceGraphic" in2="effect1_dropShadow_1_2363" result="shape"/>
</filter>
<clipPath id="clip0_1_2363">
<rect width="128" height="128" fill="white"/>
</clipPath>
</defs>
</svg>
