<svg width="128" height="128" viewBox="0 0 128 128" fill="none" xmlns="http://www.w3.org/2000/svg">
<g filter="url(#filter0_ddi_1_2461)">
<path d="M15.5 28H112.5C116.641 28 120 31.3594 120 35.5V108.5C120 112.641 116.641 116 112.5 116H15.5C11.3594 116 8 112.641 8 108.5V35.5C8 31.3594 11.3594 28 15.5 28Z" fill="#FAFAFA"/>
</g>
<path d="M19.7773 36H108.223C110.309 36 112 37.6914 112 39.7773V104.223C112 106.309 110.309 108 108.223 108H19.7773C17.6914 108 16 106.309 16 104.223V39.7773C16 37.6914 17.6914 36 19.7773 36Z" fill="url(#paint0_linear_1_2461)" fill-opacity="0.3"/>
<g filter="url(#filter1_dd_1_2461)">
<path d="M48 56V88H52V84H76V88H80V56H76V60H52V56H48ZM52 64H76V80H52V64Z" fill="white"/>
</g>
<g filter="url(#filter2_dd_1_2461)">
<path d="M62 66C62.3906 66 62.7735 66.1172 63.1094 66.3359L69.1094 70.3359C70.2891 71.125 70.2891 72.875 69.1094 73.6641L63.1094 77.6641C62.7735 77.8828 62.3906 78 62 78C62 78 59.9922 78 60 76V68C59.9922 66 62 66 62 66Z" fill="white"/>
</g>
<defs>
<filter id="filter0_ddi_1_2461" x="8" y="28" width="112" height="89" filterUnits="userSpaceOnUse" color-interpolation-filters="sRGB">
<feFlood flood-opacity="0" result="BackgroundImageFix"/>
<feColorMatrix in="SourceAlpha" type="matrix" values="0 0 0 0 0 0 0 0 0 0 0 0 0 0 0 0 0 0 127 0" result="hardAlpha"/>
<feOffset/>
<feComposite in2="hardAlpha" operator="out"/>
<feColorMatrix type="matrix" values="0 0 0 0 0.847059 0 0 0 0 0.843137 0 0 0 0 0.87451 0 0 0 1 0"/>
<feBlend mode="normal" in2="BackgroundImageFix" result="effect1_dropShadow_1_2461"/>
<feColorMatrix in="SourceAlpha" type="matrix" values="0 0 0 0 0 0 0 0 0 0 0 0 0 0 0 0 0 0 127 0" result="hardAlpha"/>
<feOffset dy="1"/>
<feComposite in2="hardAlpha" operator="out"/>
<feColorMatrix type="matrix" values="0 0 0 0 0.725235 0 0 0 0 0.71396 0 0 0 0 0.804167 0 0 0 1 0"/>
<feBlend mode="normal" in2="effect1_dropShadow_1_2461" result="effect2_dropShadow_1_2461"/>
<feBlend mode="normal" in="SourceGraphic" in2="effect2_dropShadow_1_2461" result="shape"/>
<feColorMatrix in="SourceAlpha" type="matrix" values="0 0 0 0 0 0 0 0 0 0 0 0 0 0 0 0 0 0 127 0" result="hardAlpha"/>
<feOffset dy="1"/>
<feComposite in2="hardAlpha" operator="arithmetic" k2="-1" k3="1"/>
<feColorMatrix type="matrix" values="0 0 0 0 1 0 0 0 0 1 0 0 0 0 1 0 0 0 1 0"/>
<feBlend mode="normal" in2="shape" result="effect3_innerShadow_1_2461"/>
</filter>
<filter id="filter1_dd_1_2461" x="38.1" y="46.1" width="51.8" height="51.8" filterUnits="userSpaceOnUse" color-interpolation-filters="sRGB">
<feFlood flood-opacity="0" result="BackgroundImageFix"/>
<feColorMatrix in="SourceAlpha" type="matrix" values="0 0 0 0 0 0 0 0 0 0 0 0 0 0 0 0 0 0 127 0" result="hardAlpha"/>
<feOffset/>
<feGaussianBlur stdDeviation="4.95"/>
<feComposite in2="hardAlpha" operator="out"/>
<feColorMatrix type="matrix" values="0 0 0 0 0 0 0 0 0 0 0 0 0 0 0 0 0 0 1 0"/>
<feBlend mode="overlay" in2="BackgroundImageFix" result="effect1_dropShadow_1_2461"/>
<feColorMatrix in="SourceAlpha" type="matrix" values="0 0 0 0 0 0 0 0 0 0 0 0 0 0 0 0 0 0 127 0" result="hardAlpha"/>
<feOffset dx="2" dy="2"/>
<feGaussianBlur stdDeviation="2"/>
<feComposite in2="hardAlpha" operator="out"/>
<feColorMatrix type="matrix" values="0 0 0 0 0 0 0 0 0 0 0 0 0 0 0 0 0 0 1 0"/>
<feBlend mode="overlay" in2="effect1_dropShadow_1_2461" result="effect2_dropShadow_1_2461"/>
<feBlend mode="normal" in="SourceGraphic" in2="effect2_dropShadow_1_2461" result="shape"/>
</filter>
<filter id="filter2_dd_1_2461" x="50.1" y="56.1" width="29.7941" height="31.8" filterUnits="userSpaceOnUse" color-interpolation-filters="sRGB">
<feFlood flood-opacity="0" result="BackgroundImageFix"/>
<feColorMatrix in="SourceAlpha" type="matrix" values="0 0 0 0 0 0 0 0 0 0 0 0 0 0 0 0 0 0 127 0" result="hardAlpha"/>
<feOffset/>
<feGaussianBlur stdDeviation="4.95"/>
<feComposite in2="hardAlpha" operator="out"/>
<feColorMatrix type="matrix" values="0 0 0 0 0 0 0 0 0 0 0 0 0 0 0 0 0 0 1 0"/>
<feBlend mode="overlay" in2="BackgroundImageFix" result="effect1_dropShadow_1_2461"/>
<feColorMatrix in="SourceAlpha" type="matrix" values="0 0 0 0 0 0 0 0 0 0 0 0 0 0 0 0 0 0 127 0" result="hardAlpha"/>
<feOffset dx="2" dy="2"/>
<feGaussianBlur stdDeviation="2"/>
<feComposite in2="hardAlpha" operator="out"/>
<feColorMatrix type="matrix" values="0 0 0 0 0 0 0 0 0 0 0 0 0 0 0 0 0 0 1 0"/>
<feBlend mode="overlay" in2="effect1_dropShadow_1_2461" result="effect2_dropShadow_1_2461"/>
<feBlend mode="normal" in="SourceGraphic" in2="effect2_dropShadow_1_2461" result="shape"/>
</filter>
<linearGradient id="paint0_linear_1_2461" x1="18.7504" y1="107" x2="106.412" y2="35.3342" gradientUnits="userSpaceOnUse">
<stop stop-color="#E01B24"/>
<stop offset="0.394161" stop-color="#E66100"/>
<stop offset="1" stop-color="#FD59FF"/>
</linearGradient>
</defs>
</svg>
