<svg width="128" height="128" viewBox="0 0 128 128" fill="none" xmlns="http://www.w3.org/2000/svg">
<g clip-path="url(#clip0_1_2724)">
<path d="M28 8H78L108.043 37.918V111.977C108.043 116.41 104.434 120 100 120H28C23.5664 120 20 116.434 20 112V16C20 11.5664 23.5664 8 28 8Z" fill="#F6F5F4"/>
<g filter="url(#filter0_d_1_2724)">
<path d="M78 8V30C78 34.4336 81.6094 37.9219 86.043 37.9219L108.043 37.918L78 8Z" fill="#DEDDDA"/>
</g>
<mask id="mask0_1_2724" style="mask-type:luminance" maskUnits="userSpaceOnUse" x="0" y="0" width="128" height="128">
<path d="M128 0H0V128H128V0Z" fill="black" fill-opacity="0.3"/>
</mask>
<g mask="url(#mask0_1_2724)">
<mask id="mask1_1_2724" style="mask-type:luminance" maskUnits="userSpaceOnUse" x="-8" y="-16" width="192" height="152">
<path d="M184 -16H-8V136H184V-16Z" fill="white"/>
</mask>
<g mask="url(#mask1_1_2724)">
<path d="M34 20H36V50H34V20Z" fill="#D5D3CF"/>
<path d="M44 20H46V50H44V20Z" fill="#D5D3CF"/>
<path d="M60 20H62V50H60V20Z" fill="#D5D3CF"/>
<path d="M76 42H78V50H76V42Z" fill="#D5D3CF"/>
<path d="M92 42H94V50H92V42Z" fill="#D5D3CF"/>
<path d="M34 48H94V50H34V48Z" fill="#D5D3CF"/>
<path d="M34 42H94V44H34V42Z" fill="#D5D3CF"/>
<path d="M34 36H62V38H34V36Z" fill="#D5D3CF"/>
<path d="M34 30H62V32H34V30Z" fill="#D5D3CF"/>
<path d="M34 24H62V26H34V24Z" fill="#D5D3CF"/>
<path d="M34 18H62V20H34V18Z" fill="#D5D3CF"/>
<path d="M34 98H94V100H34V98Z" fill="#D5D3CF"/>
<path d="M34 104H94V106H34V104Z" fill="#D5D3CF"/>
<path d="M34 110H94V112H34V110Z" fill="#D5D3CF"/>
<path d="M34 98H36V112H34V98Z" fill="#D5D3CF"/>
<path d="M44 98H46V112H44V98Z" fill="#D5D3CF"/>
<path d="M60 98H62V112H60V98Z" fill="#D5D3CF"/>
<path d="M76 98H78V112H76V98Z" fill="#D5D3CF"/>
<path d="M92 98H94V112H92V98Z" fill="#D5D3CF"/>
</g>
</g>
<path d="M34 54H36V92H34V54Z" fill="#D5D3CF"/>
<path d="M94 90V92H34V90H94Z" fill="#D5D3CF"/>
<path d="M38 68H44V88H38V68Z" fill="#50DB81"/>
<path d="M46 76H52V88H46V76Z" fill="#8F5AA0"/>
<path d="M54 60H60V88H54V60Z" fill="#FB8C14"/>
<path d="M62 64H68V88H62V64Z" fill="#E01B24"/>
<path d="M70 74H76V88H70V74Z" fill="#8F5AA0"/>
<path d="M78 80H84V88H78V80Z" fill="#4A86CF"/>
<path d="M86 70H92V88H86V70Z" fill="#F6D32D"/>
</g>
<defs>
<filter id="filter0_d_1_2724" x="63.7" y="1.7" width="54.643" height="54.5219" filterUnits="userSpaceOnUse" color-interpolation-filters="sRGB">
<feFlood flood-opacity="0" result="BackgroundImageFix"/>
<feColorMatrix in="SourceAlpha" type="matrix" values="0 0 0 0 0 0 0 0 0 0 0 0 0 0 0 0 0 0 127 0" result="hardAlpha"/>
<feOffset dx="-2" dy="6"/>
<feGaussianBlur stdDeviation="6.15"/>
<feComposite in2="hardAlpha" operator="out"/>
<feColorMatrix type="matrix" values="0 0 0 0 0.433894 0 0 0 0 0.433894 0 0 0 0 0.433894 0 0 0 0.46 0"/>
<feBlend mode="normal" in2="BackgroundImageFix" result="effect1_dropShadow_1_2724"/>
<feBlend mode="normal" in="SourceGraphic" in2="effect1_dropShadow_1_2724" result="shape"/>
</filter>
<clipPath id="clip0_1_2724">
<rect width="128" height="128" fill="white"/>
</clipPath>
</defs>
</svg>
