<svg width="128" height="128" viewBox="0 0 128 128" fill="none" xmlns="http://www.w3.org/2000/svg">
<mask id="mask0_1_2764" style="mask-type:luminance" maskUnits="userSpaceOnUse" x="20" y="8" width="89" height="112">
<path d="M20 8H109V120H20V8Z" fill="white"/>
</mask>
<g mask="url(#mask0_1_2764)">
<mask id="mask1_1_2764" style="mask-type:luminance" maskUnits="userSpaceOnUse" x="20" y="8" width="89" height="112">
<path d="M28 8C23.5664 8 20 11.5664 20 16V112C20 116.434 23.5664 120 28 120H100C104.434 120 108.047 116.41 108.043 111.98V37.918L86.043 37.9258C81.6094 37.9258 78 34.4336 78 30V8H28Z" fill="white"/>
</mask>
<g mask="url(#mask1_1_2764)">
<path d="M28 8H78L108.043 37.918V111.977C108.043 116.41 104.434 120 100 120H28C23.5664 120 20 116.434 20 112V16C20 11.5664 23.5664 8 28 8Z" fill="#F6F5F4"/>
<mask id="mask2_1_2764" style="mask-type:luminance" maskUnits="userSpaceOnUse" x="0" y="0" width="128" height="128">
<path d="M128 0H0V128H128V0Z" fill="black" fill-opacity="0.3"/>
</mask>
<g mask="url(#mask2_1_2764)">
<mask id="mask3_1_2764" style="mask-type:luminance" maskUnits="userSpaceOnUse" x="-8" y="-16" width="192" height="152">
<path d="M184 -16H-8V136H184V-16Z" fill="white"/>
</mask>
<g mask="url(#mask3_1_2764)">
<path d="M34 20H36V50H34V20Z" fill="#D5D3CF"/>
<path d="M44 20H46V50H44V20Z" fill="#D5D3CF"/>
<path d="M60 20H62V50H60V20Z" fill="#D5D3CF"/>
<path d="M76 42H78V50H76V42Z" fill="#D5D3CF"/>
<path d="M92 42H94V50H92V42Z" fill="#D5D3CF"/>
<path d="M34 48H94V50H34V48Z" fill="#D5D3CF"/>
<path d="M34 42H94V44H34V42Z" fill="#D5D3CF"/>
<path d="M34 36H62V38H34V36Z" fill="#D5D3CF"/>
<path d="M34 30H62V32H34V30Z" fill="#D5D3CF"/>
<path d="M34 24H62V26H34V24Z" fill="#D5D3CF"/>
<path d="M34 18H62V20H34V18Z" fill="#D5D3CF"/>
<path d="M34 98H94V100H34V98Z" fill="#D5D3CF"/>
<path d="M34 104H94V106H34V104Z" fill="#D5D3CF"/>
<path d="M34 110H94V112H34V110Z" fill="#D5D3CF"/>
<path d="M34 98H36V112H34V98Z" fill="#D5D3CF"/>
<path d="M44 98H46V112H44V98Z" fill="#D5D3CF"/>
<path d="M60 98H62V112H60V98Z" fill="#D5D3CF"/>
<path d="M76 98H78V112H76V98Z" fill="#D5D3CF"/>
<path d="M92 98H94V112H92V98Z" fill="#D5D3CF"/>
</g>
</g>
</g>
</g>
<rect x="20" y="8" width="88" height="112" rx="8" fill="url(#paint0_linear_1_2764)"/>
<mask id="mask4_1_2764" style="mask-type:luminance" maskUnits="userSpaceOnUse" x="34" y="54" width="2" height="38">
<path d="M34 54H36V92H34V54Z" fill="white"/>
</mask>
<g mask="url(#mask4_1_2764)">
<mask id="mask5_1_2764" style="mask-type:luminance" maskUnits="userSpaceOnUse" x="20" y="8" width="89" height="112">
<path d="M28 8C23.5664 8 20 11.5664 20 16V112C20 116.434 23.5664 120 28 120H100C104.434 120 108.047 116.41 108.043 111.98V37.918L86.043 37.9258C81.6094 37.9258 78 34.4336 78 30V8H28Z" fill="white"/>
</mask>
<g mask="url(#mask5_1_2764)">
<path d="M34 54H36V92H34V54Z" fill="#DEDDDA"/>
</g>
</g>
<mask id="mask6_1_2764" style="mask-type:luminance" maskUnits="userSpaceOnUse" x="34" y="90" width="60" height="2">
<path d="M34 90H94V92H34V90Z" fill="white"/>
</mask>
<g mask="url(#mask6_1_2764)">
<mask id="mask7_1_2764" style="mask-type:luminance" maskUnits="userSpaceOnUse" x="20" y="8" width="89" height="112">
<path d="M28 8C23.5664 8 20 11.5664 20 16V112C20 116.434 23.5664 120 28 120H100C104.434 120 108.047 116.41 108.043 111.98V37.918L86.043 37.9258C81.6094 37.9258 78 34.4336 78 30V8H28Z" fill="white"/>
</mask>
<g mask="url(#mask7_1_2764)">
<path d="M94 90V92H34V90H94Z" fill="#DEDDDA"/>
</g>
</g>
<mask id="mask8_1_2764" style="mask-type:luminance" maskUnits="userSpaceOnUse" x="38" y="68" width="6" height="20">
<path d="M38 68H44V88H38V68Z" fill="white"/>
</mask>
<g mask="url(#mask8_1_2764)">
<mask id="mask9_1_2764" style="mask-type:luminance" maskUnits="userSpaceOnUse" x="20" y="8" width="89" height="112">
<path d="M28 8C23.5664 8 20 11.5664 20 16V112C20 116.434 23.5664 120 28 120H100C104.434 120 108.047 116.41 108.043 111.98V37.918L86.043 37.9258C81.6094 37.9258 78 34.4336 78 30V8H28Z" fill="white"/>
</mask>
<g mask="url(#mask9_1_2764)">
<path d="M38 68H44V88H38V68Z" fill="#DEDDDA"/>
</g>
</g>
<mask id="mask10_1_2764" style="mask-type:luminance" maskUnits="userSpaceOnUse" x="46" y="76" width="6" height="12">
<path d="M46 76H52V88H46V76Z" fill="white"/>
</mask>
<g mask="url(#mask10_1_2764)">
<mask id="mask11_1_2764" style="mask-type:luminance" maskUnits="userSpaceOnUse" x="20" y="8" width="89" height="112">
<path d="M28 8C23.5664 8 20 11.5664 20 16V112C20 116.434 23.5664 120 28 120H100C104.434 120 108.047 116.41 108.043 111.98V37.918L86.043 37.9258C81.6094 37.9258 78 34.4336 78 30V8H28Z" fill="white"/>
</mask>
<g mask="url(#mask11_1_2764)">
<path d="M46 76H52V88H46V76Z" fill="#DEDDDA"/>
</g>
</g>
<mask id="mask12_1_2764" style="mask-type:luminance" maskUnits="userSpaceOnUse" x="54" y="60" width="6" height="28">
<path d="M54 60H60V88H54V60Z" fill="white"/>
</mask>
<g mask="url(#mask12_1_2764)">
<mask id="mask13_1_2764" style="mask-type:luminance" maskUnits="userSpaceOnUse" x="20" y="8" width="89" height="112">
<path d="M28 8C23.5664 8 20 11.5664 20 16V112C20 116.434 23.5664 120 28 120H100C104.434 120 108.047 116.41 108.043 111.98V37.918L86.043 37.9258C81.6094 37.9258 78 34.4336 78 30V8H28Z" fill="white"/>
</mask>
<g mask="url(#mask13_1_2764)">
<path d="M54 60H60V88H54V60Z" fill="#DEDDDA"/>
</g>
</g>
<mask id="mask14_1_2764" style="mask-type:luminance" maskUnits="userSpaceOnUse" x="62" y="64" width="6" height="24">
<path d="M62 64H68V88H62V64Z" fill="white"/>
</mask>
<g mask="url(#mask14_1_2764)">
<mask id="mask15_1_2764" style="mask-type:luminance" maskUnits="userSpaceOnUse" x="20" y="8" width="89" height="112">
<path d="M28 8C23.5664 8 20 11.5664 20 16V112C20 116.434 23.5664 120 28 120H100C104.434 120 108.047 116.41 108.043 111.98V37.918L86.043 37.9258C81.6094 37.9258 78 34.4336 78 30V8H28Z" fill="white"/>
</mask>
<g mask="url(#mask15_1_2764)">
<path d="M62 64H68V88H62V64Z" fill="#DEDDDA"/>
</g>
</g>
<mask id="mask16_1_2764" style="mask-type:luminance" maskUnits="userSpaceOnUse" x="70" y="74" width="6" height="14">
<path d="M70 74H76V88H70V74Z" fill="white"/>
</mask>
<g mask="url(#mask16_1_2764)">
<mask id="mask17_1_2764" style="mask-type:luminance" maskUnits="userSpaceOnUse" x="20" y="8" width="89" height="112">
<path d="M28 8C23.5664 8 20 11.5664 20 16V112C20 116.434 23.5664 120 28 120H100C104.434 120 108.047 116.41 108.043 111.98V37.918L86.043 37.9258C81.6094 37.9258 78 34.4336 78 30V8H28Z" fill="white"/>
</mask>
<g mask="url(#mask17_1_2764)">
<path d="M70 74H76V88H70V74Z" fill="#DEDDDA"/>
</g>
</g>
<mask id="mask18_1_2764" style="mask-type:luminance" maskUnits="userSpaceOnUse" x="78" y="80" width="6" height="8">
<path d="M78 80H84V88H78V80Z" fill="white"/>
</mask>
<g mask="url(#mask18_1_2764)">
<mask id="mask19_1_2764" style="mask-type:luminance" maskUnits="userSpaceOnUse" x="20" y="8" width="89" height="112">
<path d="M28 8C23.5664 8 20 11.5664 20 16V112C20 116.434 23.5664 120 28 120H100C104.434 120 108.047 116.41 108.043 111.98V37.918L86.043 37.9258C81.6094 37.9258 78 34.4336 78 30V8H28Z" fill="white"/>
</mask>
<g mask="url(#mask19_1_2764)">
<path d="M78 80H84V88H78V80Z" fill="#DEDDDA"/>
</g>
</g>
<mask id="mask20_1_2764" style="mask-type:luminance" maskUnits="userSpaceOnUse" x="86" y="70" width="6" height="18">
<path d="M86 70H92V88H86V70Z" fill="white"/>
</mask>
<g mask="url(#mask20_1_2764)">
<mask id="mask21_1_2764" style="mask-type:luminance" maskUnits="userSpaceOnUse" x="20" y="8" width="89" height="112">
<path d="M28 8C23.5664 8 20 11.5664 20 16V112C20 116.434 23.5664 120 28 120H100C104.434 120 108.047 116.41 108.043 111.98V37.918L86.043 37.9258C81.6094 37.9258 78 34.4336 78 30V8H28Z" fill="white"/>
</mask>
<g mask="url(#mask21_1_2764)">
<path d="M86 70H92V88H86V70Z" fill="#DEDDDA"/>
</g>
</g>
<g filter="url(#filter0_d_1_2764)">
<path d="M78 8V30C78 34.4336 81.6094 37.9219 86.043 37.9219L108.043 37.918L78 8Z" fill="#DEDDDA"/>
</g>
<defs>
<filter id="filter0_d_1_2764" x="63.7" y="1.7" width="54.643" height="54.5219" filterUnits="userSpaceOnUse" color-interpolation-filters="sRGB">
<feFlood flood-opacity="0" result="BackgroundImageFix"/>
<feColorMatrix in="SourceAlpha" type="matrix" values="0 0 0 0 0 0 0 0 0 0 0 0 0 0 0 0 0 0 127 0" result="hardAlpha"/>
<feOffset dx="-2" dy="6"/>
<feGaussianBlur stdDeviation="6.15"/>
<feComposite in2="hardAlpha" operator="out"/>
<feColorMatrix type="matrix" values="0 0 0 0 0.433894 0 0 0 0 0.433894 0 0 0 0 0.433894 0 0 0 0.46 0"/>
<feBlend mode="normal" in2="BackgroundImageFix" result="effect1_dropShadow_1_2764"/>
<feBlend mode="normal" in="SourceGraphic" in2="effect1_dropShadow_1_2764" result="shape"/>
</filter>
<linearGradient id="paint0_linear_1_2764" x1="21.4831" y1="11" x2="107.187" y2="116.554" gradientUnits="userSpaceOnUse">
<stop stop-color="white" stop-opacity="0.545"/>
<stop offset="0.153846" stop-color="white"/>
<stop offset="0.302885" stop-color="white" stop-opacity="0.3175"/>
<stop offset="0.586538" stop-color="white" stop-opacity="0.09"/>
<stop offset="0.745192" stop-color="white"/>
<stop offset="0.860577" stop-color="white" stop-opacity="0"/>
</linearGradient>
</defs>
</svg>
