<svg width="128" height="128" viewBox="0 0 128 128" fill="none" xmlns="http://www.w3.org/2000/svg">
<path d="M68 117V101H60V117H68Z" fill="url(#paint0_linear_1_38)"/>
<path d="M8.17969 117.832H120.125V122H8.17969V117.832Z" fill="url(#paint1_linear_1_38)"/>
<g filter="url(#filter0_i_1_38)">
<path d="M51.7305 116H76.2695C78.332 116 80 117.668 80 119.73V120.27C80 122.332 78.332 124 76.2695 124H51.7305C49.668 124 48 122.332 48 120.27V119.73C48 117.668 49.668 116 51.7305 116Z" fill="url(#paint2_linear_1_38)"/>
</g>
<path d="M27.6336 14C22.8503 14 19 17.8285 19 22.5824V96.4176C19 101.175 22.8503 105 27.6336 105H100.363C105.15 105 109 101.175 109 96.4176V34.5508C109 28.8616 104.362 24.2519 98.6391 24.2519H58.8077C56.6848 24.2519 54.7444 23.0618 53.7912 21.1777L52.4897 18.6097C51.0564 15.7835 48.1459 14 44.9615 14H27.6336Z" fill="url(#paint3_linear_1_38)"/>
<path d="M65.6345 34C63.3637 34 61.3125 34.9266 59.8234 36.4314C57.9434 38.3273 55.3722 40.7291 52.6847 40.7291H29.2498C24.6792 40.7291 21 44.4814 21 49.1406V94.5886C21 99.251 24.6792 103 29.2498 103H98.7469C103.321 103 107 99.251 107 94.5886V42.4114C107 37.7523 103.321 34 98.7469 34H65.6345Z" fill="url(#paint4_linear_1_38)"/>
<g filter="url(#filter1_ii_1_38)">
<path d="M65.7105 31C63.3341 31 61.1875 31.9707 59.6291 33.5472C57.6617 35.5334 54.9709 38.0496 52.1584 38.0496H27.6336C22.8503 38.0496 19 41.9806 19 46.8616V96.188C19 101.069 22.8503 105 27.6336 105H100.363C105.15 105 109 101.069 109 96.188V39.812C109 34.931 105.15 31 100.363 31H65.7105Z" fill="url(#paint5_linear_1_38)"/>
</g>
<defs>
<filter id="filter0_i_1_38" x="48" y="116" width="32" height="8" filterUnits="userSpaceOnUse" color-interpolation-filters="sRGB">
<feFlood flood-opacity="0" result="BackgroundImageFix"/>
<feBlend mode="normal" in="SourceGraphic" in2="BackgroundImageFix" result="shape"/>
<feColorMatrix in="SourceAlpha" type="matrix" values="0 0 0 0 0 0 0 0 0 0 0 0 0 0 0 0 0 0 127 0" result="hardAlpha"/>
<feOffset/>
<feGaussianBlur stdDeviation="1.9"/>
<feComposite in2="hardAlpha" operator="arithmetic" k2="-1" k3="1"/>
<feColorMatrix type="matrix" values="0 0 0 0 1 0 0 0 0 1 0 0 0 0 1 0 0 0 1 0"/>
<feBlend mode="normal" in2="shape" result="effect1_innerShadow_1_38"/>
</filter>
<filter id="filter1_ii_1_38" x="18" y="29" width="93" height="78" filterUnits="userSpaceOnUse" color-interpolation-filters="sRGB">
<feFlood flood-opacity="0" result="BackgroundImageFix"/>
<feBlend mode="normal" in="SourceGraphic" in2="BackgroundImageFix" result="shape"/>
<feColorMatrix in="SourceAlpha" type="matrix" values="0 0 0 0 0 0 0 0 0 0 0 0 0 0 0 0 0 0 127 0" result="hardAlpha"/>
<feOffset dx="2" dy="2"/>
<feGaussianBlur stdDeviation="1"/>
<feComposite in2="hardAlpha" operator="arithmetic" k2="-1" k3="1"/>
<feColorMatrix type="matrix" values="0 0 0 0 0.706731 0 0 0 0 0.839872 0 0 0 0 1 0 0 0 1 0"/>
<feBlend mode="normal" in2="shape" result="effect1_innerShadow_1_38"/>
<feColorMatrix in="SourceAlpha" type="matrix" values="0 0 0 0 0 0 0 0 0 0 0 0 0 0 0 0 0 0 127 0" result="hardAlpha"/>
<feOffset dx="-1" dy="-2"/>
<feGaussianBlur stdDeviation="2"/>
<feComposite in2="hardAlpha" operator="arithmetic" k2="-1" k3="1"/>
<feColorMatrix type="matrix" values="0 0 0 0 0.686275 0 0 0 0 0.831373 0 0 0 0 1 0 0 0 1 0"/>
<feBlend mode="normal" in2="effect1_innerShadow_1_38" result="effect2_innerShadow_1_38"/>
</filter>
<linearGradient id="paint0_linear_1_38" x1="66.1175" y1="109.311" x2="66.1175" y2="112.882" gradientUnits="userSpaceOnUse">
<stop stop-color="#313133"/>
<stop offset="1" stop-color="#9A9996"/>
</linearGradient>
<linearGradient id="paint1_linear_1_38" x1="11.7536" y1="116.791" x2="116.552" y2="116.791" gradientUnits="userSpaceOnUse">
<stop stop-color="#9A9996" stop-opacity="0"/>
<stop offset="0.0909091" stop-color="#9A9996"/>
<stop offset="0.909091" stop-color="#9A9996"/>
<stop offset="1" stop-color="#9A9996" stop-opacity="0"/>
</linearGradient>
<linearGradient id="paint2_linear_1_38" x1="80" y1="124" x2="74" y2="113.5" gradientUnits="userSpaceOnUse">
<stop stop-color="#77767B"/>
<stop offset="0.557692" stop-color="#C0BFBC"/>
<stop offset="1" stop-color="#AEADAB"/>
</linearGradient>
<linearGradient id="paint3_linear_1_38" x1="64" y1="24.2989" x2="61.8721" y2="87.8096" gradientUnits="userSpaceOnUse">
<stop stop-color="#438DE6"/>
<stop offset="0.5625" stop-color="#236BC3"/>
<stop offset="1" stop-color="#024AA0"/>
</linearGradient>
<linearGradient id="paint4_linear_1_38" x1="20.9998" y1="97.9264" x2="107" y2="97.9264" gradientUnits="userSpaceOnUse">
<stop stop-color="#62A0EA"/>
<stop offset="0.0576991" stop-color="#AFD4FF"/>
<stop offset="0.122204" stop-color="#62A0EA"/>
<stop offset="0.873306" stop-color="#62A0EA"/>
<stop offset="0.955997" stop-color="#C0D5EA"/>
<stop offset="1" stop-color="#62A0EA"/>
</linearGradient>
<linearGradient id="paint5_linear_1_38" x1="79.6122" y1="33.2289" x2="104.626" y2="103.329" gradientUnits="userSpaceOnUse">
<stop stop-color="#97C9FF"/>
<stop offset="0.634615" stop-color="#69ADFF"/>
<stop offset="1" stop-color="#438DE6"/>
</linearGradient>
</defs>
</svg>
