<svg width="128" height="128" viewBox="0 0 128 128" fill="none" xmlns="http://www.w3.org/2000/svg">
<path d="M21.9766 11C16.4492 11 12 15.4609 12 21V107.031C12 112.574 16.4492 117.031 21.9766 117.031H106.02C111.551 117.031 116 112.574 116 107.031V34.9453C116 28.3164 110.641 22.9453 104.027 22.9453H58C55.5469 22.9453 53.3047 21.5586 52.2031 19.3633L50.6992 16.3711C49.043 13.0781 45.6797 11 42 11H21.9766Z" fill="url(#paint0_linear_1_143)"/>
<path d="M65.8625 35C63.2749 35 60.9375 36.0609 59.2406 37.7838C57.0983 39.9544 54.1683 42.7044 51.1058 42.7044H24.401C19.1925 42.7044 15 47.0005 15 52.3349V104.37C15 109.708 19.1925 114 24.401 114H103.595C108.807 114 113 109.708 113 104.37V44.6305C113 39.2961 108.807 35 103.595 35H65.8625Z" fill="url(#paint1_linear_1_143)"/>
<g filter="url(#filter0_ii_1_143)">
<path d="M65.9766 31C63.2305 31 60.75 32.1281 58.9492 33.9603C56.6758 36.2685 53.5664 39.1928 50.3164 39.1928H21.9766C16.4492 39.1928 12 43.7612 12 49.4337V106.759C12 112.432 16.4492 117 21.9766 117H106.02C111.551 117 116 112.432 116 106.759V41.241C116 35.5684 111.551 31 106.02 31H65.9766Z" fill="url(#paint2_linear_1_143)"/>
</g>
<g filter="url(#filter1_di_1_143)">
<path d="M50 70V72H66V70H50Z" fill="#D3E7FF"/>
<path d="M54 64C50.7109 64 48 66.7109 48 70V86C48 89.2891 50.7109 92 54 92H74C77.2891 92 80 89.2891 80 86V74C80 70.7109 77.2891 68 74 68H66.8281L63.4141 64.5859C63.0391 64.2109 62.5312 64 62 64H54ZM54 68H61.1719L64.5859 71.4141C64.9609 71.7891 65.4688 72 66 72H74C75.125 72 76 72.875 76 74V86C76 87.1328 75.125 88 74 88H54C52.875 88 52 87.1328 52 86V70C52 68.875 52.875 68 54 68Z" fill="#D3E7FF"/>
</g>
<defs>
<filter id="filter0_ii_1_143" x="11" y="29" width="107" height="90" filterUnits="userSpaceOnUse" color-interpolation-filters="sRGB">
<feFlood flood-opacity="0" result="BackgroundImageFix"/>
<feBlend mode="normal" in="SourceGraphic" in2="BackgroundImageFix" result="shape"/>
<feColorMatrix in="SourceAlpha" type="matrix" values="0 0 0 0 0 0 0 0 0 0 0 0 0 0 0 0 0 0 127 0" result="hardAlpha"/>
<feOffset dx="2" dy="2"/>
<feGaussianBlur stdDeviation="1"/>
<feComposite in2="hardAlpha" operator="arithmetic" k2="-1" k3="1"/>
<feColorMatrix type="matrix" values="0 0 0 0 0.706731 0 0 0 0 0.839872 0 0 0 0 1 0 0 0 1 0"/>
<feBlend mode="normal" in2="shape" result="effect1_innerShadow_1_143"/>
<feColorMatrix in="SourceAlpha" type="matrix" values="0 0 0 0 0 0 0 0 0 0 0 0 0 0 0 0 0 0 127 0" result="hardAlpha"/>
<feOffset dx="-1" dy="-2"/>
<feGaussianBlur stdDeviation="2"/>
<feComposite in2="hardAlpha" operator="arithmetic" k2="-1" k3="1"/>
<feColorMatrix type="matrix" values="0 0 0 0 0.686275 0 0 0 0 0.831373 0 0 0 0 1 0 0 0 1 0"/>
<feBlend mode="normal" in2="effect1_innerShadow_1_143" result="effect2_innerShadow_1_143"/>
</filter>
<filter id="filter1_di_1_143" x="44" y="62" width="40" height="36" filterUnits="userSpaceOnUse" color-interpolation-filters="sRGB">
<feFlood flood-opacity="0" result="BackgroundImageFix"/>
<feColorMatrix in="SourceAlpha" type="matrix" values="0 0 0 0 0 0 0 0 0 0 0 0 0 0 0 0 0 0 127 0" result="hardAlpha"/>
<feOffset dy="2"/>
<feGaussianBlur stdDeviation="2"/>
<feComposite in2="hardAlpha" operator="out"/>
<feColorMatrix type="matrix" values="0 0 0 0 0.00971217 0 0 0 0 0.407638 0 0 0 0 0.897837 0 0 0 1 0"/>
<feBlend mode="normal" in2="BackgroundImageFix" result="effect1_dropShadow_1_143"/>
<feBlend mode="normal" in="SourceGraphic" in2="effect1_dropShadow_1_143" result="shape"/>
<feColorMatrix in="SourceAlpha" type="matrix" values="0 0 0 0 0 0 0 0 0 0 0 0 0 0 0 0 0 0 127 0" result="hardAlpha"/>
<feOffset dx="1" dy="1"/>
<feGaussianBlur stdDeviation="0.8"/>
<feComposite in2="hardAlpha" operator="arithmetic" k2="-1" k3="1"/>
<feColorMatrix type="matrix" values="0 0 0 0 0.941106 0 0 0 0 0.968344 0 0 0 0 1 0 0 0 1 0"/>
<feBlend mode="normal" in2="shape" result="effect2_innerShadow_1_143"/>
</filter>
<linearGradient id="paint0_linear_1_143" x1="64" y1="23" x2="61.5" y2="97" gradientUnits="userSpaceOnUse">
<stop stop-color="#438DE6"/>
<stop offset="0.5625" stop-color="#236BC3"/>
<stop offset="1" stop-color="#024AA0"/>
</linearGradient>
<linearGradient id="paint1_linear_1_143" x1="14.9998" y1="108.191" x2="113" y2="108.191" gradientUnits="userSpaceOnUse">
<stop stop-color="#62A0EA"/>
<stop offset="0.0576991" stop-color="#AFD4FF"/>
<stop offset="0.122204" stop-color="#62A0EA"/>
<stop offset="0.873306" stop-color="#62A0EA"/>
<stop offset="0.955997" stop-color="#C0D5EA"/>
<stop offset="1" stop-color="#62A0EA"/>
</linearGradient>
<linearGradient id="paint2_linear_1_143" x1="82.0408" y1="33.5904" x2="111.24" y2="114.952" gradientUnits="userSpaceOnUse">
<stop stop-color="#97C9FF"/>
<stop offset="0.634615" stop-color="#69ADFF"/>
<stop offset="1" stop-color="#438DE6"/>
</linearGradient>
</defs>
</svg>
